<svg width="165" height="165" viewBox="0 0 165 165" fill="none" xmlns="http://www.w3.org/2000/svg">
<path d="M135.781 83.1531L127.342 69.0937C126.658 67.9433 125.687 66.99 124.524 66.3272C123.361 65.6645 122.046 65.3148 120.708 65.3125H108.539L110.791 55C110.918 54.3742 110.905 53.7278 110.751 53.1078C110.598 52.4878 110.308 51.9099 109.903 51.416C109.498 50.9221 108.988 50.5247 108.41 50.2528C107.832 49.9808 107.201 49.841 106.562 49.8437H46.5953C45.6086 49.8507 44.654 50.1957 43.8909 50.8212C43.1277 51.4468 42.602 52.315 42.4016 53.2812L41.4906 57.4406C41.4658 57.5535 41.4634 57.6701 41.4837 57.7839C41.5039 57.8976 41.5464 58.0063 41.6086 58.1036C41.6709 58.201 41.7517 58.2851 41.8465 58.3513C41.9412 58.4174 42.0481 58.4642 42.1609 58.489C42.2738 58.5139 42.3904 58.5162 42.5042 58.496C42.618 58.4757 42.7266 58.4333 42.824 58.371C42.9213 58.3088 43.0055 58.228 43.0716 58.1332C43.1377 58.0384 43.1845 57.9316 43.2094 57.8187L44.1203 53.6422C44.2396 53.068 44.5486 52.5508 44.9975 52.1735C45.4464 51.7963 46.0092 51.5811 46.5953 51.5625H106.562C106.947 51.5639 107.326 51.6513 107.673 51.8182C108.019 51.9851 108.324 52.2274 108.564 52.5273C108.805 52.8273 108.975 53.1772 109.063 53.5515C109.151 53.9258 109.154 54.315 109.072 54.6906L106.666 65.7078C106.611 65.7926 106.571 65.8854 106.545 65.9828L98.1406 104.844H58.4375C58.3849 104.304 58.2872 103.769 58.1453 103.245V103.056C58.0055 102.565 57.8214 102.088 57.5953 101.63L57.3891 101.406C57.156 100.964 56.8918 100.539 56.5984 100.134L56.4437 99.9453C56.1438 99.5506 55.8103 99.1825 55.4469 98.8453L55.275 98.6906C54.9076 98.3522 54.5107 98.0474 54.0891 97.7797L53.9 97.6594C53.4594 97.3963 52.9998 97.1665 52.525 96.9719H52.3531C51.8571 96.779 51.3453 96.6295 50.8234 96.525H50.7031C49.5687 96.2958 48.4 96.2958 47.2656 96.525H47.1453C46.6235 96.6295 46.1117 96.779 45.6156 96.9719H45.4438C44.969 97.1665 44.5093 97.3963 44.0687 97.6594L43.8797 97.7797C43.458 98.0474 43.0612 98.3522 42.6937 98.6906L42.5219 98.8453C42.1585 99.1825 41.8249 99.5506 41.525 99.9453L41.3703 100.134C41.0769 100.539 40.8127 100.964 40.5797 101.406L40.4766 101.612C40.2504 102.07 40.0664 102.548 39.9266 103.039V103.228C39.7488 103.754 39.6166 104.295 39.5312 104.844H32.9828L36.0937 95.6656C36.1462 95.5561 36.1749 95.4367 36.1778 95.3153C36.1808 95.1939 36.158 95.0732 36.1109 94.9613C36.0639 94.8493 35.9936 94.7486 35.9048 94.6658C35.816 94.583 35.7106 94.52 35.5957 94.4808C35.4807 94.4417 35.3587 94.4274 35.2378 94.4388C35.1169 94.4502 34.9998 94.4871 34.8943 94.5471C34.7887 94.6071 34.697 94.6888 34.6253 94.7868C34.5535 94.8847 34.5034 94.9968 34.4781 95.1156L32.3297 101.406H31.6938C30.971 101.406 30.2664 101.633 29.6801 102.055C29.0939 102.478 28.6558 103.075 28.4281 103.761L27.5 106.562H39.5312C39.5312 109.07 40.5272 111.474 42.3 113.247C44.0728 115.02 46.4772 116.016 48.9844 116.016C51.4915 116.016 53.8959 115.02 55.6687 113.247C57.4415 111.474 58.4375 109.07 58.4375 106.562H104.844C104.844 109.07 105.84 111.474 107.613 113.247C109.385 115.02 111.79 116.016 114.297 116.016C116.804 116.016 119.208 115.02 120.981 113.247C122.754 111.474 123.75 109.07 123.75 106.562H134.062L134.269 105.927C134.549 105.072 134.482 104.141 134.084 103.334C133.685 102.528 132.987 101.91 132.137 101.612L136.366 89.7015C136.758 88.6346 136.908 87.494 136.807 86.3618C136.706 85.2296 136.356 84.1338 135.781 83.1531ZM48.9844 113.437C47.4547 113.437 45.9593 112.984 44.6874 112.134C43.4155 111.284 42.4241 110.076 41.8387 108.663C41.2533 107.25 41.1002 105.695 41.3986 104.194C41.697 102.694 42.4337 101.316 43.5153 100.234C44.597 99.1524 45.9751 98.4158 47.4755 98.1173C48.9758 97.8189 50.5309 97.9721 51.9442 98.5575C53.3575 99.1429 54.5654 100.134 55.4153 101.406C56.2651 102.678 56.7187 104.173 56.7187 105.703C56.7142 107.753 55.8979 109.718 54.4484 111.167C52.9989 112.617 51.0343 113.433 48.9844 113.437ZM114.297 113.437C112.767 113.437 111.272 112.984 110 112.134C108.728 111.284 107.737 110.076 107.151 108.663C106.566 107.25 106.413 105.695 106.711 104.194C107.01 102.694 107.746 101.316 108.828 100.234C109.91 99.1524 111.288 98.4158 112.788 98.1173C114.288 97.8189 115.843 97.9721 117.257 98.5575C118.67 99.1429 119.878 100.134 120.728 101.406C121.578 102.678 122.031 104.173 122.031 105.703C122.027 107.753 121.21 109.718 119.761 111.167C118.311 112.617 116.347 113.433 114.297 113.437ZM134.75 89.1172L129.164 104.844H123.75C123.697 104.304 123.6 103.769 123.458 103.245V103.056C123.315 102.566 123.131 102.089 122.908 101.63L122.702 101.406C122.465 100.966 122.201 100.541 121.911 100.134L121.756 99.9453C121.456 99.5506 121.123 99.1825 120.759 98.8453L120.588 98.6734C120.215 98.3458 119.819 98.047 119.402 97.7797L119.212 97.6594C118.776 97.3896 118.315 97.1595 117.837 96.9719H117.666C117.17 96.779 116.658 96.6295 116.136 96.525H116.016C114.881 96.2935 113.712 96.2935 112.578 96.525H112.458C111.936 96.6295 111.424 96.779 110.928 96.9719H110.756C110.278 97.1595 109.818 97.3896 109.381 97.6594L109.192 97.7797C108.775 98.047 108.378 98.3458 108.006 98.6734L107.834 98.8453C107.471 99.1825 107.137 99.5506 106.837 99.9453L106.683 100.134C106.393 100.541 106.129 100.966 105.892 101.406L105.789 101.612C105.566 102.072 105.382 102.549 105.239 103.039V103.228C105.061 103.754 104.929 104.295 104.844 104.844H99.8594L108.127 67.0312H120.673C121.714 67.0318 122.737 67.3031 123.641 67.8184C124.545 68.3336 125.299 69.0752 125.83 69.9703L134.217 84.0297C134.674 84.7864 134.959 85.6346 135.051 86.514C135.143 87.3933 135.041 88.2821 134.75 89.1172Z" fill="#787878"/>
<path d="M122.908 72.6344C122.532 71.9767 121.989 71.43 121.334 71.0497C120.68 70.6694 119.936 70.469 119.178 70.4688H112.578C112.392 70.4687 112.211 70.5291 112.063 70.6406C111.914 70.7522 111.805 70.909 111.753 71.0875L108.316 83.1188C108.282 83.2472 108.277 83.3815 108.301 83.5121C108.325 83.6427 108.377 83.7666 108.453 83.875C108.532 83.9827 108.636 84.0701 108.755 84.1299C108.875 84.1897 109.007 84.2201 109.141 84.2188H122.117C122.873 84.222 123.617 84.0249 124.272 83.6475C124.927 83.2701 125.47 82.726 125.847 82.0703C126.226 81.4209 126.426 80.6824 126.426 79.9305C126.426 79.1785 126.226 78.4401 125.847 77.7906L122.908 72.6344ZM124.352 81.2281C124.127 81.6215 123.801 81.9481 123.409 82.1745C123.016 82.401 122.57 82.5192 122.117 82.5172H110.275L113.231 72.2047H119.178C119.633 72.2026 120.081 72.3226 120.474 72.5524C120.867 72.7822 121.191 73.1132 121.413 73.5109L124.369 78.6672C124.586 79.0565 124.699 79.4955 124.696 79.9413C124.693 80.3872 124.574 80.8246 124.352 81.2109V81.2281Z" fill="#787878"/>
<path d="M48.9844 101.406C48.1345 101.406 47.3038 101.658 46.5972 102.13C45.8905 102.603 45.3398 103.274 45.0146 104.059C44.6894 104.844 44.6043 105.708 44.7701 106.541C44.9359 107.375 45.3451 108.141 45.946 108.741C46.547 109.342 47.3126 109.752 48.1461 109.917C48.9796 110.083 49.8436 109.998 50.6287 109.673C51.4139 109.348 52.085 108.797 52.5571 108.09C53.0292 107.384 53.2813 106.553 53.2813 105.703C53.2813 104.564 52.8285 103.471 52.0227 102.665C51.2169 101.859 50.124 101.406 48.9844 101.406ZM48.9844 108.281C48.4745 108.281 47.976 108.13 47.552 107.847C47.1281 107.563 46.7976 107.161 46.6025 106.69C46.4074 106.219 46.3563 105.7 46.4558 105.2C46.5553 104.7 46.8008 104.241 47.1614 103.88C47.5219 103.52 47.9813 103.274 48.4814 103.175C48.9815 103.075 49.4999 103.126 49.971 103.321C50.4421 103.516 50.8447 103.847 51.128 104.271C51.4113 104.695 51.5625 105.193 51.5625 105.703C51.5625 106.387 51.2909 107.043 50.8074 107.526C50.3239 108.01 49.6681 108.281 48.9844 108.281Z" fill="#787878"/>
<path d="M114.297 101.406C113.447 101.406 112.616 101.658 111.91 102.13C111.203 102.603 110.652 103.274 110.327 104.059C110.002 104.844 109.917 105.708 110.083 106.541C110.248 107.375 110.658 108.141 111.259 108.741C111.859 109.342 112.625 109.752 113.459 109.917C114.292 110.083 115.156 109.998 115.941 109.673C116.726 109.348 117.397 108.797 117.87 108.09C118.342 107.384 118.594 106.553 118.594 105.703C118.594 104.564 118.141 103.471 117.335 102.665C116.529 101.859 115.436 101.406 114.297 101.406ZM114.297 108.281C113.787 108.281 113.289 108.13 112.865 107.847C112.441 107.563 112.11 107.161 111.915 106.69C111.72 106.219 111.669 105.7 111.768 105.2C111.868 104.7 112.113 104.241 112.474 103.88C112.834 103.52 113.294 103.274 113.794 103.175C114.294 103.075 114.812 103.126 115.283 103.321C115.755 103.516 116.157 103.847 116.441 104.271C116.724 104.695 116.875 105.193 116.875 105.703C116.875 106.387 116.603 107.043 116.12 107.526C115.636 108.01 114.981 108.281 114.297 108.281Z" fill="#787878"/>
<path d="M32.6562 65.3125H70.4688C70.9246 65.3125 71.3618 65.1314 71.6841 64.8091C72.0064 64.4868 72.1875 64.0496 72.1875 63.5938C72.1875 63.1379 72.0064 62.7007 71.6841 62.3784C71.3618 62.0561 70.9246 61.875 70.4688 61.875H32.6562C32.2004 61.875 31.7632 62.0561 31.4409 62.3784C31.1186 62.7007 30.9375 63.1379 30.9375 63.5938C30.9375 64.0496 31.1186 64.4868 31.4409 64.8091C31.7632 65.1314 32.2004 65.3125 32.6562 65.3125Z" fill="#787878"/>
<path d="M65.3125 80.7812C65.3125 80.3254 65.1314 79.8882 64.8091 79.5659C64.4868 79.2436 64.0496 79.0625 63.5938 79.0625H34.375C33.9192 79.0625 33.482 79.2436 33.1597 79.5659C32.8373 79.8882 32.6562 80.3254 32.6562 80.7812C32.6562 81.2371 32.8373 81.6743 33.1597 81.9966C33.482 82.3189 33.9192 82.5 34.375 82.5H63.5938C64.0496 82.5 64.4868 82.3189 64.8091 81.9966C65.1314 81.6743 65.3125 81.2371 65.3125 80.7812Z" fill="#787878"/>
<path d="M68.75 72.1875C68.75 71.7317 68.5689 71.2945 68.2466 70.9722C67.9243 70.6498 67.4871 70.4688 67.0312 70.4688H36.0938C35.6379 70.4688 35.2007 70.6498 34.8784 70.9722C34.5561 71.2945 34.375 71.7317 34.375 72.1875C34.375 72.6433 34.5561 73.0805 34.8784 73.4028C35.2007 73.7252 35.6379 73.9062 36.0938 73.9062H67.0312C67.4871 73.9062 67.9243 73.7252 68.2466 73.4028C68.5689 73.0805 68.75 72.6433 68.75 72.1875Z" fill="#787878"/>
<path d="M30.9375 73.9062C31.8867 73.9062 32.6562 73.1367 32.6562 72.1875C32.6562 71.2383 31.8867 70.4688 30.9375 70.4688C29.9883 70.4688 29.2188 71.2383 29.2188 72.1875C29.2188 73.1367 29.9883 73.9062 30.9375 73.9062Z" fill="#787878"/>
<path d="M37.8125 87.6562C37.3567 87.6562 36.9195 87.8373 36.5972 88.1597C36.2748 88.482 36.0938 88.9192 36.0938 89.375C36.0938 89.8308 36.2748 90.268 36.5972 90.5903C36.9195 90.9127 37.3567 91.0938 37.8125 91.0938H60.1562C60.6121 91.0938 61.0493 90.9127 61.3716 90.5903C61.6939 90.268 61.875 89.8308 61.875 89.375C61.875 88.9192 61.6939 88.482 61.3716 88.1597C61.0493 87.8373 60.6121 87.6562 60.1562 87.6562H37.8125Z" fill="#787878"/>
<path d="M32.6562 91.0938C33.6055 91.0938 34.375 90.3242 34.375 89.375C34.375 88.4258 33.6055 87.6562 32.6562 87.6562C31.707 87.6562 30.9375 88.4258 30.9375 89.375C30.9375 90.3242 31.707 91.0938 32.6562 91.0938Z" fill="#787878"/>
</svg>
