<svg width="1183" height="797" viewBox="0 0 1183 797" fill="none" xmlns="http://www.w3.org/2000/svg">
<path d="M950.974 254.753H1052.3C1052.3 254.753 1043.34 238.271 1017.25 240.678C992.348 242.973 991.086 232.565 978.42 231.289C965.754 230.014 955.186 239.817 950.974 254.753Z" fill="#F5F5F5"/>
<path d="M557.319 143.46H732.277C732.277 143.46 716.803 115.007 671.771 119.152C628.757 123.136 626.564 105.204 604.702 102.972C582.84 100.741 564.685 117.717 557.319 143.46Z" fill="#EBEBEB"/>
<path d="M901.105 157.679C908.256 151.234 908.883 140.15 902.505 132.923C896.126 125.696 885.158 125.063 878.007 131.509C870.856 137.954 870.229 149.038 876.607 156.265C882.986 163.492 893.954 164.125 901.105 157.679Z" fill="#EBEBEB"/>
<path d="M889.395 178.767C889.05 175.389 888.935 171.991 889.048 168.597C888.934 165.203 889.05 161.806 889.395 158.428C889.74 161.806 889.856 165.203 889.742 168.597C889.856 171.991 889.74 175.389 889.395 178.767Z" fill="#EBEBEB"/>
<path d="M922.314 144.576C915.334 145.043 908.331 145.043 901.351 144.576C908.331 144.108 915.334 144.108 922.314 144.576Z" fill="#EBEBEB"/>
<path d="M889.616 114.896C889.961 117.991 890.077 121.108 889.963 124.22C890.077 127.328 889.961 130.439 889.616 133.529C889.271 130.439 889.155 127.328 889.269 124.22C889.155 121.108 889.271 117.991 889.616 114.896Z" fill="#EBEBEB"/>
<path d="M880.262 145.835C872.856 146.303 865.428 146.303 858.022 145.835C865.428 145.367 872.856 145.367 880.262 145.835Z" fill="#EBEBEB"/>
<path d="M881.729 138.965C879.474 137.201 877.364 135.255 875.42 133.147C873.328 131.187 871.402 129.055 869.663 126.771C871.918 128.535 874.028 130.48 875.972 132.589C878.059 134.553 879.984 136.686 881.729 138.965Z" fill="#EBEBEB"/>
<path d="M907.992 127.042C906.705 128.868 905.229 130.551 903.591 132.063C902.113 133.748 900.464 135.271 898.67 136.606C899.968 134.779 901.448 133.091 903.086 131.569C904.564 129.894 906.208 128.377 907.992 127.042Z" fill="#EBEBEB"/>
<path d="M909.238 164.66C907.065 162.956 905.034 161.074 903.165 159.033C901.136 157.155 899.273 155.102 897.597 152.896C899.78 154.59 901.811 156.473 903.67 158.523C905.694 160.407 907.557 162.459 909.238 164.66Z" fill="#EBEBEB"/>
<path d="M885.751 151.589C883.44 154.428 880.953 157.117 878.307 159.639C875.83 162.31 873.196 164.828 870.42 167.179C872.72 164.36 875.202 161.698 877.849 159.209C880.327 156.508 882.966 153.964 885.751 151.589Z" fill="#EBEBEB"/>
<path d="M251.332 280.64H336.508C336.508 280.64 328.969 266.788 307.028 268.796C286.081 270.725 284.945 261.99 274.361 260.906C263.777 259.822 254.881 268.079 251.332 280.64Z" fill="#EBEBEB"/>
<path d="M929.728 707.864C929.728 707.864 929.617 708.007 929.365 708.23L928.245 709.218C927.724 709.633 927.062 710.095 926.273 710.653C925.332 711.241 924.358 711.774 923.355 712.247C920.591 713.544 917.66 714.44 914.648 714.909C910.666 715.519 906.624 715.636 902.613 715.26C897.77 714.766 892.971 713.898 888.26 712.661C883.165 711.434 877.77 709.952 871.997 708.947C865.968 707.827 859.797 707.714 853.732 708.613C847.23 709.691 840.811 711.224 834.52 713.203C828.19 715.189 821.727 716.713 815.182 717.762C809.03 718.62 802.782 718.464 796.68 717.3C791.2 716.242 785.777 714.901 780.433 713.283C775.401 711.817 770.717 710.494 766.379 709.505C762.493 708.606 758.543 708.02 754.565 707.752C752.798 707.752 751.158 707.752 749.659 707.832C748.29 707.924 746.926 708.089 745.574 708.326L742.419 709.027L740.132 709.824L738.728 710.302C738.564 710.363 738.395 710.411 738.224 710.446C738.372 710.352 738.531 710.277 738.697 710.223L740.069 709.665C740.684 709.426 741.441 709.107 742.356 708.788L745.511 708.007C746.872 707.742 748.246 707.55 749.628 707.433C751.205 707.242 752.782 707.353 754.581 707.29C758.592 707.491 762.58 708.024 766.505 708.884C770.859 709.84 775.575 711.131 780.607 712.566C785.939 714.161 791.352 715.469 796.822 716.487C802.842 717.624 809.005 717.77 815.071 716.917C821.579 715.859 828.004 714.335 834.299 712.359C840.624 710.363 847.081 708.824 853.621 707.752C859.769 706.858 866.019 706.992 872.123 708.15C877.944 709.171 883.338 710.685 888.417 711.944C893.075 713.202 897.821 714.103 902.613 714.638C906.583 715.04 910.587 714.959 914.538 714.399C917.512 713.967 920.414 713.131 923.166 711.912C925.516 710.853 927.721 709.492 929.728 707.864Z" fill="#E0E0E0"/>
<path d="M333.811 733.447C333.703 733.577 333.581 733.694 333.448 733.798L332.328 734.802C331.813 735.206 331.151 735.684 330.341 736.237C326.808 738.463 322.854 739.918 318.732 740.509C314.749 741.118 310.708 741.236 306.697 740.859C301.853 740.36 297.054 739.486 292.343 738.245C287.248 737.018 281.854 735.535 276.065 734.547C270.042 733.421 263.876 733.303 257.815 734.196C251.315 735.282 244.896 736.816 238.603 738.787C232.269 740.779 225.801 742.307 219.249 743.362C213.097 744.215 206.848 744.053 200.747 742.884C195.266 741.833 189.843 740.493 184.501 738.867C179.469 737.416 174.784 736.077 170.447 735.105C166.558 734.189 162.601 733.602 158.617 733.352C156.866 733.352 155.225 733.256 153.727 733.352C152.357 733.448 150.993 733.618 149.642 733.862L146.487 734.563L144.2 735.344L142.78 735.838C142.623 735.901 142.459 735.944 142.291 735.966L142.749 735.758L144.137 735.201C144.752 734.961 145.509 734.643 146.408 734.324L149.563 733.543C150.923 733.27 152.297 733.078 153.68 732.969C155.257 732.778 156.834 732.873 158.632 732.826C162.645 733.011 166.635 733.545 170.557 734.42C174.91 735.36 179.627 736.667 184.658 738.102C189.69 739.536 195.085 741.019 200.858 742.023C206.884 743.155 213.052 743.294 219.123 742.437C225.638 741.427 232.074 739.951 238.382 738.022C244.708 736.032 251.165 734.498 257.705 733.431C263.846 732.532 270.092 732.661 276.191 733.814C282.027 734.85 287.422 736.364 292.501 737.608C297.158 738.867 301.904 739.767 306.697 740.301C310.661 740.708 314.659 740.633 318.606 740.078C321.586 739.644 324.494 738.802 327.249 737.576C329.603 736.489 331.808 735.102 333.811 733.447Z" fill="#E0E0E0"/>
<path d="M606.627 715.371C606.627 715.371 605.68 714.494 603.724 713.267C600.918 711.622 597.791 710.615 594.56 710.318C589.765 709.896 584.933 710.262 580.254 711.402C574.938 712.502 569.102 714.239 562.714 714.59C556.325 714.941 550.379 713.108 545.111 711.816C542.625 711.136 540.102 710.603 537.555 710.222C535.342 709.938 533.104 709.906 530.883 710.127C527.651 710.373 524.54 711.473 521.861 713.315C520.925 714.056 520.039 714.86 519.211 715.722C519.87 714.695 520.703 713.794 521.671 713.06C524.345 711.062 527.509 709.843 530.82 709.537C533.084 709.273 535.37 709.273 537.634 709.537C540.218 709.867 542.778 710.362 545.3 711.019C550.6 712.295 556.42 714.096 562.651 713.713C568.881 713.331 574.701 711.689 580.001 710.621C584.759 709.5 589.669 709.188 594.528 709.697C597.822 710.052 600.991 711.17 603.787 712.964C604.536 713.455 605.234 714.021 605.869 714.654C606.148 714.864 606.402 715.104 606.627 715.371Z" fill="#E0E0E0"/>
<path d="M945.832 398.341H942.741V511.722H945.832V398.341Z" fill="#E0E0E0"/>
<path d="M953.246 398.341H950.154V511.722H953.246V398.341Z" fill="#E0E0E0"/>
<path d="M981.511 398.341H978.42V511.722H981.511V398.341Z" fill="#E0E0E0"/>
<path d="M916.825 398.341H913.733V511.722H916.825V398.341Z" fill="#E0E0E0"/>
<path d="M945.816 398.341H913.733V401.545H945.816V398.341Z" fill="#E0E0E0"/>
<path d="M1019.12 406.056H799.929V409.754H1019.12V406.056Z" fill="#E0E0E0"/>
<path d="M981.511 455.023H915.279V458.482H981.511V455.023Z" fill="#E0E0E0"/>
<path d="M980.597 411.613L978.261 410.157L950.7 455.306L953.036 456.762L980.597 411.613Z" fill="#E0E0E0"/>
<path d="M945.164 410.259L942.828 408.803L915.267 453.952L917.603 455.408L945.164 410.259Z" fill="#E0E0E0"/>
<path d="M996.433 390.371H947.283V406.072H996.433V390.371Z" fill="#E0E0E0"/>
<path d="M850.482 408.383L927.961 348.448L955.549 395.041L956.59 394.419L928.292 346.663L927.756 347.078L849.757 407.426L850.482 408.383Z" fill="#E0E0E0"/>
<path d="M912.992 408.462L928.087 345.133L945.911 410.965L912.992 408.462ZM914.491 407.363L944.318 409.658L928.166 350.011L914.491 407.363Z" fill="#E0E0E0"/>
<path d="M1087.95 509.283H754.77V529.909H1087.95V509.283Z" fill="#E0E0E0"/>
<path d="M839.788 467.042H872.265V509.937H839.788V467.042ZM871.019 468.254H841.05V508.725H871.019V468.254Z" fill="#E0E0E0"/>
<path d="M897.582 467.6H871.619V511.722H897.582V467.6Z" fill="#E0E0E0"/>
<path d="M677.733 484.209H683.127V286.059H677.733V484.209Z" fill="#E0E0E0"/>
<path d="M664.751 484.209H670.146V286.059H664.751V484.209Z" fill="#E0E0E0"/>
<path d="M615.365 484.209H620.76V286.059H615.365V484.209Z" fill="#E0E0E0"/>
<path d="M728.412 484.209H733.807V286.059H728.412V484.209Z" fill="#E0E0E0"/>
<path d="M677.733 291.654H733.807V286.059H677.733V291.654Z" fill="#E0E0E0"/>
<path d="M549.638 306L932.693 306V299.544L549.638 299.544V306Z" fill="#E0E0E0"/>
<path d="M615.365 391.168H731.11V385.142H615.365V391.168Z" fill="#E0E0E0"/>
<path d="M665.117 388.152L669.211 385.599L621.047 306.698L616.952 309.25L665.117 388.152Z" fill="#E0E0E0"/>
<path d="M726.424 389.713L730.513 387.136L681.892 308.335L677.803 310.912L726.424 389.713Z" fill="#E0E0E0"/>
<path d="M589.292 299.544H675.193V272.112H589.292V299.544Z" fill="#E0E0E0"/>
<path d="M844.347 303.625L708.964 198.867L660.713 280.289L658.931 279.205L708.365 195.759L709.295 196.476L845.624 301.951L844.347 303.625Z" fill="#E0E0E0"/>
<path d="M677.575 308.12L708.727 193.081L735.116 303.737L677.575 308.12ZM708.601 201.545L680.367 305.793L732.498 301.824L708.601 201.545Z" fill="#E0E0E0"/>
<path d="M291.207 669.273C291.207 669.273 290.087 668.699 288.053 667.679C285.279 666.176 282.24 665.239 279.109 664.921C276.936 664.858 274.763 665.029 272.626 665.431C270.292 665.798 267.894 666.244 265.229 666.85C260.071 667.966 254.361 669.576 248.13 669.687C241.9 669.799 236.174 667.918 231.048 666.691C228.626 666.055 226.165 665.581 223.682 665.272C221.527 665.032 219.353 665.032 217.199 665.272C214.064 665.559 211.054 666.657 208.46 668.46C207.56 669.185 206.702 669.962 205.889 670.787C206.028 670.519 206.203 670.272 206.41 670.054C206.949 669.359 207.575 668.738 208.271 668.205C210.847 666.23 213.906 665.001 217.12 664.65C219.322 664.355 221.55 664.317 223.761 664.539C226.276 664.815 228.769 665.267 231.221 665.894C236.395 667.105 242.026 668.922 248.115 668.811C254.203 668.699 259.881 667.137 265.071 666.053C267.673 665.479 270.181 665.049 272.532 664.698C274.713 664.315 276.929 664.176 279.141 664.284C282.337 664.655 285.421 665.698 288.195 667.344C289.188 667.902 289.93 668.348 290.434 668.683C290.721 668.838 290.981 669.037 291.207 669.273Z" fill="#263238"/>
<path d="M1068.45 606.884C1068.45 606.884 1067.51 605.991 1065.55 604.78C1062.76 603.121 1059.63 602.108 1056.4 601.815C1051.61 601.391 1046.77 601.762 1042.1 602.915C1036.77 603.998 1030.95 605.736 1024.56 606.103C1018.17 606.469 1012.21 604.62 1006.95 603.313C1004.46 602.63 1001.94 602.098 999.383 601.719C997.168 601.447 994.931 601.42 992.711 601.639C989.482 601.878 986.374 602.978 983.704 604.827C982.793 605.608 981.924 606.438 981.101 607.314C981.769 606.293 982.607 605.398 983.578 604.668C986.239 602.657 989.401 601.432 992.711 601.129C994.974 600.866 997.261 600.866 999.525 601.129C1002.11 601.461 1004.67 601.951 1007.19 602.596C1012.49 603.871 1018.23 605.672 1024.54 605.306C1030.85 604.939 1036.61 603.265 1041.97 602.213C1046.73 601.077 1051.64 600.764 1056.5 601.289C1059.79 601.634 1062.96 602.753 1065.76 604.556C1066.51 605.044 1067.21 605.605 1067.85 606.23C1068.26 606.629 1068.49 606.852 1068.45 606.884Z" fill="#263238"/>
<path d="M194.738 622.569C194.738 622.648 193.791 621.692 191.835 620.464C189.035 618.819 185.913 617.813 182.687 617.516C177.891 617.093 173.06 617.459 168.38 618.599C163.049 619.699 157.213 621.437 150.84 621.787C144.468 622.138 138.49 620.305 133.222 619.014C130.737 618.331 128.214 617.799 125.666 617.42C123.453 617.135 121.215 617.103 118.994 617.324C115.762 617.571 112.651 618.67 109.972 620.512C109.017 621.272 108.111 622.092 107.259 622.967C107.917 621.94 108.75 621.039 109.719 620.305C112.392 618.307 115.557 617.089 118.868 616.782C121.132 616.518 123.418 616.518 125.682 616.782C128.266 617.112 130.826 617.607 133.348 618.265C138.648 619.54 144.389 621.341 150.698 620.959C157.008 620.576 162.749 618.934 168.128 617.866C172.886 616.746 177.796 616.433 182.655 616.942C185.95 617.294 189.119 618.413 191.914 620.209C192.667 620.701 193.37 621.267 194.012 621.899C194.275 622.097 194.518 622.322 194.738 622.569Z" fill="#263238"/>
<path d="M1000.99 672.78C1000.54 672.7 1000.09 672.583 999.651 672.429C998.768 672.19 997.49 671.775 995.849 671.249C992.553 670.197 987.852 668.444 981.906 666.77C978.675 665.854 975.379 665.188 972.047 664.778C968.233 664.324 964.379 664.324 960.564 664.778C952.473 665.67 943.782 668.173 934.381 669.384C929.798 670.038 925.146 670.038 920.563 669.384C916.131 668.779 911.919 667.87 907.945 667.025C899.979 665.288 892.692 664.076 886.54 664.395C881.677 664.506 876.889 665.623 872.47 667.679C871.292 668.28 870.149 668.951 869.048 669.687C868.679 669.977 868.289 670.238 867.88 670.468C869.22 669.246 870.716 668.211 872.328 667.392C876.754 665.19 881.594 663.968 886.524 663.805C892.834 663.407 900.137 664.586 908.118 666.276C916.099 667.966 924.98 670.022 934.333 668.556C943.64 667.344 952.347 664.873 960.517 663.997C964.389 663.534 968.302 663.534 972.174 663.997C975.533 664.446 978.855 665.149 982.111 666.101C988.057 667.87 992.726 669.703 995.991 670.883L999.745 672.206C1000.18 672.354 1000.6 672.546 1000.99 672.78Z" fill="#263238"/>
<path d="M711.929 499.097H102.732V536.811H711.929V499.097Z" fill="#263238"/>
<path d="M317.186 499.894H258.509V422.107H317.186V499.894ZM260.086 498.3H315.609V423.701H260.086V498.3Z" fill="#263238"/>
<path d="M363.875 422.904H316.397V503.576H363.875V422.904Z" fill="#263238"/>
<path d="M452.079 208.926H446.433V504.437H452.079V208.926Z" fill="#263238"/>
<path d="M465.645 208.926H459.998V504.437H465.645V208.926Z" fill="#263238"/>
<path d="M517.334 208.926H511.687V504.437H517.334V208.926Z" fill="#263238"/>
<path d="M399.05 208.926H393.403V504.437H399.05V208.926Z" fill="#263238"/>
<path d="M452.064 208.926H393.403V214.792H452.064V208.926Z" fill="#263238"/>
<path d="M586.09 223.048H185.321V229.791H586.09V223.048Z" fill="#263238"/>
<path d="M517.334 312.583H396.226V318.896H517.334V312.583Z" fill="#263238"/>
<path d="M515.698 233.167L511.415 230.497L461.023 313.048L465.305 315.718L515.698 233.167Z" fill="#263238"/>
<path d="M450.781 230.782L446.498 228.112L396.106 310.663L400.388 313.333L450.781 230.782Z" fill="#263238"/>
<path d="M544.606 194.34H454.729V223.048H544.606V194.34Z" fill="#263238"/>
<path d="M277.563 227.049L276.601 225.79L419.933 114.896L471.481 201.912L470.14 202.741L419.492 117.255L277.563 227.049Z" fill="#263238"/>
<path d="M451.843 231.672L392.425 227.145L419.665 112.871L451.843 231.672ZM394.333 225.694L449.666 229.903L419.697 119.279L394.333 225.694Z" fill="#263238"/>
<path d="M158.207 338.645L162.986 312.44L192.514 222.793L194.012 223.303L164.5 312.838L160.099 337.019L258.194 335.282L219.786 223.303L221.284 222.777L260.402 336.828L158.207 338.645Z" fill="#263238"/>
<path d="M172.134 314.098H133.789V361.169H172.134V314.098Z" fill="#263238"/>
<path d="M279.377 314.098H172.15V361.169H279.377V314.098Z" fill="#263238"/>
<path d="M153.774 361.169C153.538 361.169 153.364 350.712 153.364 337.832C153.364 324.953 153.538 314.496 153.774 314.496C154.011 314.496 154.184 324.937 154.184 337.832C154.184 350.728 153.995 361.169 153.774 361.169Z" fill="#455A64"/>
<path d="M172.15 361.169C171.929 361.169 171.74 350.712 171.74 337.832C171.74 324.953 171.929 314.496 172.15 314.496C172.371 314.496 172.56 324.937 172.56 337.832C172.56 350.728 172.371 361.169 172.15 361.169Z" fill="#455A64"/>
<path d="M273.352 355.797C273.352 355.797 273.352 355.558 273.352 355.143C273.352 354.729 273.352 354.059 273.352 353.262C273.352 351.589 273.352 349.198 273.273 346.121C273.273 339.905 273.194 330.946 273.131 319.772L273.399 320.059L176.772 320.187C176.393 320.569 177.261 319.693 177.182 319.788V329.097C177.182 332.19 177.182 335.234 177.182 338.247V355.781L176.661 355.462L245.796 355.653L265.954 355.765H271.38H272.8C272.963 355.752 273.126 355.752 273.289 355.765H272.879H271.506H266.175L246.096 355.876L176.693 356.068H176.283V328.97C176.283 327.376 176.283 325.877 176.283 324.315V319.661L176.709 319.23L273.336 319.374H273.62V319.645C273.62 330.803 273.51 339.905 273.462 346.169C273.462 349.213 273.462 351.589 273.462 353.246C273.462 354.011 273.462 354.617 273.462 355.063C273.461 355.312 273.424 355.559 273.352 355.797Z" fill="#455A64"/>
<path d="M184.185 355.797C183.949 355.797 183.775 347.731 183.775 337.785C183.775 327.838 183.949 319.772 184.185 319.772C184.422 319.772 184.595 327.838 184.595 337.785C184.595 347.731 184.406 355.797 184.185 355.797Z" fill="#455A64"/>
<path d="M193.271 355.797C193.034 355.797 192.861 347.731 192.861 337.785C192.861 327.838 193.034 319.772 193.271 319.772C193.507 319.772 193.681 327.838 193.681 337.785C193.681 347.731 193.491 355.797 193.271 355.797Z" fill="#455A64"/>
<path d="M202.356 355.797C202.135 355.797 201.946 347.731 201.946 337.785C201.946 327.838 202.135 319.772 202.356 319.772C202.577 319.772 202.766 327.838 202.766 337.785C202.766 347.731 202.577 355.797 202.356 355.797Z" fill="#455A64"/>
<path d="M211.442 355.797C211.221 355.797 211.031 347.731 211.031 337.785C211.031 327.838 211.221 319.772 211.442 319.772C211.662 319.772 211.852 327.838 211.852 337.785C211.852 347.731 211.678 355.797 211.442 355.797Z" fill="#455A64"/>
<path d="M220.527 355.797C220.306 355.797 220.117 347.731 220.117 337.785C220.117 327.838 220.306 319.772 220.527 319.772C220.748 319.772 220.937 327.838 220.937 337.785C220.937 347.731 220.827 355.797 220.527 355.797Z" fill="#455A64"/>
<path d="M229.628 355.797C229.392 355.797 229.202 347.731 229.202 337.785C229.202 327.838 229.392 319.772 229.628 319.772C229.865 319.772 230.038 327.838 230.038 337.785C230.038 347.731 229.849 355.797 229.628 355.797Z" fill="#455A64"/>
<path d="M238.714 355.797C238.477 355.797 238.304 347.731 238.304 337.785C238.304 327.838 238.477 319.772 238.714 319.772C238.95 319.772 239.124 327.838 239.124 337.785C239.124 347.731 238.934 355.797 238.714 355.797Z" fill="#455A64"/>
<path d="M247.799 355.797C247.562 355.797 247.389 347.731 247.389 337.785C247.389 327.838 247.562 319.772 247.799 319.772C248.036 319.772 248.209 327.838 248.209 337.785C248.209 347.731 248.02 355.797 247.799 355.797Z" fill="#455A64"/>
<path d="M256.885 355.797C256.664 355.797 256.474 347.731 256.474 337.785C256.474 327.838 256.664 319.772 256.885 319.772C257.105 319.772 257.295 327.838 257.295 337.785C257.295 347.731 257.105 355.797 256.885 355.797Z" fill="#455A64"/>
<path d="M265.97 355.797C265.749 355.797 265.56 347.731 265.56 337.785C265.56 327.838 265.749 319.772 265.97 319.772C266.191 319.772 266.38 327.838 266.38 337.785C266.38 347.731 266.207 355.797 265.97 355.797Z" fill="#455A64"/>
<path d="M812.674 460.252H796.932V433.09H808.052L812.674 460.252Z" fill="#E19508"/>
<path d="M479.793 473.753H441.448V520.824H479.793V473.753Z" fill="#E19508"/>
<path opacity="0.4" d="M479.793 473.753H441.448V520.824H479.793V473.753Z" fill="white"/>
<path d="M587.036 473.753H479.809V520.824H587.036V473.753Z" fill="#E19508"/>
<path opacity="0.2" d="M587.036 473.753H479.809V520.824H587.036V473.753Z" fill="white"/>
<path d="M461.417 520.824C461.196 520.824 461.007 510.367 461.007 497.487C461.007 484.608 461.196 474.167 461.417 474.167C461.638 474.167 461.827 484.608 461.827 497.487C461.827 510.367 461.654 520.824 461.417 520.824Z" fill="#263238"/>
<path d="M581.011 515.452C580.999 515.234 580.999 515.016 581.011 514.798C581.011 514.336 581.011 513.714 581.011 512.933C581.011 511.26 581.011 508.853 581.011 505.776C581.011 499.56 580.916 490.601 580.853 479.443L581.137 479.714L484.51 479.858C484.131 480.224 484.998 479.348 484.904 479.443V497.918C484.904 503.943 484.904 509.809 484.904 515.452L484.51 515.053L553.644 515.229L573.818 515.34H579.244H580.664H581.153H580.711H579.339H574.007L553.912 515.452L484.51 515.643H484.115V515.245C484.115 509.602 484.115 503.736 484.115 497.711V479.443C484.021 479.523 484.904 478.646 484.541 479.029L581.169 479.156H581.452V479.443C581.452 490.601 581.326 499.687 581.295 505.952C581.295 508.996 581.295 511.371 581.295 513.029C581.295 513.81 581.295 514.4 581.295 514.846C581.216 515.055 581.121 515.258 581.011 515.452Z" fill="#263238"/>
<path d="M491.828 515.452C491.608 515.452 491.418 507.386 491.418 497.44C491.418 487.493 491.608 479.443 491.828 479.443C492.049 479.443 492.238 487.493 492.238 497.44C492.238 507.386 492.128 515.452 491.828 515.452Z" fill="#263238"/>
<path d="M500.93 515.452C500.693 515.452 500.504 507.386 500.504 497.44C500.504 487.493 500.693 479.443 500.93 479.443C501.166 479.443 501.34 487.493 501.34 497.44C501.34 507.386 501.15 515.452 500.93 515.452Z" fill="#263238"/>
<path d="M510.015 515.452C509.778 515.452 509.605 507.386 509.605 497.44C509.605 487.493 509.778 479.443 510.015 479.443C510.252 479.443 510.425 487.493 510.425 497.44C510.425 507.386 510.236 515.452 510.015 515.452Z" fill="#263238"/>
<path d="M519.1 515.452C518.864 515.452 518.69 507.386 518.69 497.44C518.69 487.493 518.864 479.443 519.1 479.443C519.337 479.443 519.511 487.493 519.511 497.44C519.511 507.386 519.321 515.452 519.1 515.452Z" fill="#263238"/>
<path d="M528.186 515.452C527.965 515.452 527.776 507.386 527.776 497.44C527.776 487.493 527.965 479.443 528.186 479.443C528.407 479.443 528.596 487.493 528.596 497.44C528.596 507.386 528.407 515.452 528.186 515.452Z" fill="#263238"/>
<path d="M537.271 515.452C537.05 515.452 536.861 507.386 536.861 497.44C536.861 487.493 537.05 479.443 537.271 479.443C537.492 479.443 537.681 487.493 537.681 497.44C537.681 507.386 537.508 515.452 537.271 515.452Z" fill="#263238"/>
<path d="M546.357 515.452C546.136 515.452 545.947 507.386 545.947 497.44C545.947 487.493 546.136 479.443 546.357 479.443C546.578 479.443 546.767 487.493 546.767 497.44C546.767 507.386 546.593 515.452 546.357 515.452Z" fill="#263238"/>
<path d="M555.458 515.452C555.221 515.452 555.048 507.386 555.048 497.44C555.048 487.493 555.221 479.443 555.458 479.443C555.694 479.443 555.868 487.493 555.868 497.44C555.868 507.386 555.679 515.452 555.458 515.452Z" fill="#263238"/>
<path d="M564.543 515.452C564.307 515.452 564.133 507.386 564.133 497.44C564.133 487.493 564.307 479.443 564.543 479.443C564.78 479.443 564.953 487.493 564.953 497.44C564.953 507.386 564.764 515.452 564.543 515.452Z" fill="#263238"/>
<path d="M573.629 515.452C573.408 515.452 573.219 507.386 573.219 497.44C573.219 487.493 573.408 479.443 573.629 479.443C573.85 479.443 574.039 487.493 574.039 497.44C574.039 507.386 573.85 515.452 573.629 515.452Z" fill="#263238"/>
<path d="M606.5 379.882H568.155V426.953H606.5V379.882Z" fill="#E19508"/>
<path opacity="0.4" d="M606.5 379.882H568.155V426.953H606.5V379.882Z" fill="white"/>
<path d="M713.728 379.882H606.5V426.953H713.728V379.882Z" fill="#E19508"/>
<path opacity="0.2" d="M713.728 379.882H606.5V426.953H713.728V379.882Z" fill="white"/>
<path d="M588.124 426.953C587.904 426.953 587.714 416.496 587.714 403.617C587.714 390.737 587.904 380.281 588.124 380.281C588.345 380.281 588.535 390.737 588.535 403.617C588.535 416.496 588.345 426.953 588.124 426.953Z" fill="#263238"/>
<path d="M707.718 421.581C707.696 421.364 707.696 421.145 707.718 420.928C707.718 420.465 707.718 419.844 707.718 419.047C707.718 417.453 707.718 414.982 707.718 411.906C707.718 405.689 707.623 396.731 707.56 385.573L707.844 385.844L611.201 385.987L611.611 385.573V404.031C611.611 410.056 611.611 415.922 611.611 421.565L611.217 421.167L680.351 421.342L700.525 421.454H705.951H707.355H707.86H707.402H706.046H700.699L680.619 421.565L611.217 421.756H610.822V421.358C610.822 415.715 610.822 409.849 610.822 403.824V385.589C610.728 385.668 611.595 384.792 611.232 385.158L707.876 385.302H708.144V385.589C708.144 396.747 708.033 405.832 708.002 412.097C708.002 415.141 708.002 417.516 707.923 419.174C707.923 419.939 707.923 420.545 707.923 420.991C707.923 421.438 707.718 421.581 707.718 421.581Z" fill="#263238"/>
<path d="M618.536 421.581C618.315 421.581 618.125 413.515 618.125 403.569C618.125 393.622 618.315 385.573 618.536 385.573C618.756 385.573 618.946 393.622 618.946 403.569C618.946 413.515 618.756 421.581 618.536 421.581Z" fill="#263238"/>
<path d="M627.621 421.581C627.4 421.581 627.211 413.515 627.211 403.569C627.211 393.622 627.4 385.573 627.621 385.573C627.842 385.573 628.031 393.622 628.031 403.569C628.031 413.515 627.779 421.581 627.621 421.581Z" fill="#263238"/>
<path d="M636.706 421.581C636.486 421.581 636.296 413.515 636.296 403.569C636.296 393.622 636.486 385.573 636.706 385.573C636.927 385.573 637.117 393.622 637.117 403.569C637.117 413.515 636.943 421.581 636.706 421.581Z" fill="#263238"/>
<path d="M645.792 421.581C645.571 421.581 645.382 413.515 645.382 403.569C645.382 393.622 645.571 385.573 645.792 385.573C646.013 385.573 646.218 393.622 646.218 403.569C646.218 413.515 646.028 421.581 645.792 421.581Z" fill="#263238"/>
<path d="M654.893 421.581C654.656 421.581 654.483 413.515 654.483 403.569C654.483 393.622 654.656 385.573 654.893 385.573C655.13 385.573 655.303 393.622 655.303 403.569C655.303 413.515 655.114 421.581 654.893 421.581Z" fill="#263238"/>
<path d="M664.057 421.581C663.821 421.581 663.647 413.515 663.647 403.569C663.647 393.622 663.821 385.573 664.057 385.573C664.294 385.573 664.467 393.622 664.467 403.569C664.467 413.515 664.199 421.581 664.057 421.581Z" fill="#263238"/>
<path d="M673.064 421.581C672.843 421.581 672.654 413.515 672.654 403.569C672.654 393.622 672.843 385.573 673.064 385.573C673.285 385.573 673.474 393.622 673.474 403.569C673.474 413.515 673.285 421.581 673.064 421.581Z" fill="#263238"/>
<path d="M682.149 421.581C681.928 421.581 681.739 413.515 681.739 403.569C681.739 393.622 681.928 385.573 682.149 385.573C682.37 385.573 682.559 393.622 682.559 403.569C682.559 413.515 682.386 421.581 682.149 421.581Z" fill="#263238"/>
<path d="M691.235 421.581C691.014 421.581 690.825 413.515 690.825 403.569C690.825 393.622 691.014 385.573 691.235 385.573C691.456 385.573 691.645 393.622 691.645 403.569C691.645 413.515 691.471 421.581 691.235 421.581Z" fill="#263238"/>
<path d="M700.336 421.581C700.099 421.581 699.91 413.515 699.91 403.569C699.91 393.622 700.099 385.573 700.336 385.573C700.572 385.573 700.746 393.622 700.746 403.569C700.746 413.515 700.557 421.581 700.336 421.581Z" fill="#263238"/>
<path d="M276.38 497.567H238.035V544.638H276.38V497.567Z" fill="#E19508"/>
<path opacity="0.4" d="M276.38 497.567H238.035V544.638H276.38V497.567Z" fill="white"/>
<path d="M383.607 497.567H276.38V544.638H383.607V497.567Z" fill="#E19508"/>
<path opacity="0.2" d="M383.607 497.567H276.38V544.638H383.607V497.567Z" fill="white"/>
<path d="M258.004 544.638C257.784 544.638 257.594 534.197 257.594 521.302C257.594 508.406 257.784 497.982 258.004 497.982C258.225 497.982 258.415 508.422 258.415 521.302C258.415 534.181 258.225 544.638 258.004 544.638Z" fill="#263238"/>
<path d="M377.598 539.266C377.576 539.049 377.576 538.83 377.598 538.613C377.598 538.15 377.598 537.529 377.598 536.748C377.598 535.074 377.598 532.667 377.598 529.591C377.598 523.374 377.503 514.416 377.44 503.258L377.724 503.529L281.081 503.672L281.491 503.258V521.732C281.491 527.757 281.491 533.623 281.491 539.266L281.097 538.868L350.231 539.059L370.405 539.17H375.831H377.235H377.74H377.282H375.926H370.579L350.499 539.282L281.097 539.473H280.702V539.075C280.702 533.432 280.702 527.566 280.702 521.541V503.258C280.608 503.258 281.475 502.461 281.112 502.843L377.756 502.971H378.024V503.258C378.024 514.416 377.913 523.501 377.882 529.766C377.882 532.81 377.882 535.186 377.803 536.843C377.803 537.624 377.803 538.214 377.803 538.66C377.803 539.107 377.598 539.266 377.598 539.266Z" fill="#263238"/>
<path d="M288.415 539.266C288.179 539.266 288.005 531.201 288.005 521.254C288.005 511.307 288.179 503.258 288.415 503.258C288.652 503.258 288.825 511.228 288.825 521.254C288.825 531.28 288.652 539.266 288.415 539.266Z" fill="#263238"/>
<path d="M297.501 539.266C297.28 539.266 297.091 531.201 297.091 521.254C297.091 511.307 297.28 503.258 297.501 503.258C297.722 503.258 297.911 511.228 297.911 521.254C297.911 531.28 297.722 539.266 297.501 539.266Z" fill="#263238"/>
<path d="M306.586 539.266C306.365 539.266 306.176 531.201 306.176 521.254C306.176 511.307 306.365 503.258 306.586 503.258C306.807 503.258 306.996 511.228 306.996 521.254C306.996 531.28 306.823 539.266 306.586 539.266Z" fill="#263238"/>
<path d="M315.672 539.266C315.451 539.266 315.262 531.201 315.262 521.254C315.262 511.307 315.451 503.258 315.672 503.258C315.893 503.258 316.082 511.228 316.082 521.254C316.082 531.28 315.908 539.266 315.672 539.266Z" fill="#263238"/>
<path d="M324.773 539.266C324.536 539.266 324.363 531.201 324.363 521.254C324.363 511.307 324.536 503.258 324.773 503.258C325.01 503.258 325.183 511.228 325.183 521.254C325.183 531.28 324.931 539.266 324.773 539.266Z" fill="#263238"/>
<path d="M333.858 539.266C333.622 539.266 333.448 531.201 333.448 521.254C333.448 511.307 333.622 503.258 333.858 503.258C334.095 503.258 334.268 511.228 334.268 521.254C334.268 531.28 334.079 539.266 333.858 539.266Z" fill="#263238"/>
<path d="M342.944 539.266C342.723 539.266 342.534 531.201 342.534 521.254C342.534 511.307 342.723 503.258 342.944 503.258C343.165 503.258 343.354 511.228 343.354 521.254C343.354 531.28 343.165 539.266 342.944 539.266Z" fill="#263238"/>
<path d="M352.029 539.266C351.808 539.266 351.619 531.201 351.619 521.254C351.619 511.307 351.808 503.258 352.029 503.258C352.25 503.258 352.439 511.228 352.439 521.254C352.439 531.28 352.25 539.266 352.029 539.266Z" fill="#263238"/>
<path d="M361.115 539.266C360.894 539.266 360.705 531.201 360.705 521.254C360.705 511.307 360.894 503.258 361.115 503.258C361.336 503.258 361.525 511.228 361.525 521.254C361.525 531.28 361.351 539.266 361.115 539.266Z" fill="#263238"/>
<path d="M370.2 539.266C369.979 539.266 369.79 531.201 369.79 521.254C369.79 511.307 369.979 503.258 370.2 503.258C370.421 503.258 370.61 511.228 370.61 521.254C370.61 531.28 370.437 539.266 370.2 539.266Z" fill="#263238"/>
<path d="M523.612 427.208H485.267V474.279H523.612V427.208Z" fill="#263238"/>
<path d="M630.855 427.208H523.627V474.279H630.855V427.208Z" fill="#263238"/>
<path d="M505.236 474.263C505.015 474.263 504.826 463.822 504.826 450.943C504.826 438.063 505.015 427.606 505.236 427.606C505.456 427.606 505.646 438.047 505.646 450.943C505.646 463.838 505.472 474.263 505.236 474.263Z" fill="#455A64"/>
<path d="M523.675 474.263C523.438 474.263 523.264 463.822 523.264 450.943C523.264 438.063 523.438 427.606 523.675 427.606C523.911 427.606 524.085 438.047 524.085 450.943C524.085 463.838 523.848 474.263 523.675 474.263Z" fill="#455A64"/>
<path d="M624.829 468.891C624.815 468.673 624.815 468.455 624.829 468.238C624.829 467.775 624.829 467.17 624.829 466.373C624.829 464.699 624.829 462.308 624.829 459.215C624.829 452.999 624.734 444.041 624.671 432.883L624.955 433.17L528.328 433.297C527.949 433.664 528.817 432.787 528.722 432.883V451.325C528.722 457.351 528.722 463.216 528.722 468.859L528.328 468.461L597.462 468.652L617.636 468.764H623.062H624.466H624.971H624.529H623.047H617.699L597.62 468.875L528.217 469.05H527.823V468.652C527.823 463.009 527.823 457.143 527.823 451.118V432.914L528.249 432.5L624.876 432.628H625.16V432.914C625.16 444.152 625.034 453.174 625.003 459.423C625.003 462.483 625.003 464.858 625.003 466.516C625.003 467.281 625.003 467.887 625.003 468.333C624.959 468.523 624.901 468.71 624.829 468.891Z" fill="#455A64"/>
<path d="M535.647 468.891C535.426 468.891 535.236 460.825 535.236 450.895C535.236 440.964 535.426 432.883 535.647 432.883C535.867 432.883 536.057 440.948 536.057 450.895C536.057 460.841 535.883 468.891 535.647 468.891Z" fill="#455A64"/>
<path d="M544.732 468.891C544.511 468.891 544.322 460.825 544.322 450.895C544.322 440.964 544.511 432.883 544.732 432.883C544.953 432.883 545.142 440.948 545.142 450.895C545.142 460.841 544.969 468.891 544.732 468.891Z" fill="#455A64"/>
<path d="M553.833 468.891C553.597 468.891 553.423 460.825 553.423 450.895C553.423 440.964 553.597 432.883 553.833 432.883C554.07 432.883 554.243 440.948 554.243 450.895C554.243 460.841 554.054 468.891 553.833 468.891Z" fill="#455A64"/>
<path d="M562.919 468.891C562.682 468.891 562.509 460.825 562.509 450.895C562.509 440.964 562.682 432.883 562.919 432.883C563.155 432.883 563.329 440.948 563.329 450.895C563.329 460.841 563.108 468.891 562.919 468.891Z" fill="#455A64"/>
<path d="M572.004 468.891C571.783 468.891 571.594 460.825 571.594 450.895C571.594 440.964 571.783 432.883 572.004 432.883C572.225 432.883 572.414 440.948 572.414 450.895C572.414 460.841 572.225 468.891 572.004 468.891Z" fill="#455A64"/>
<path d="M581.09 468.891C580.869 468.891 580.68 460.825 580.68 450.895C580.68 440.964 580.869 432.883 581.09 432.883C581.31 432.883 581.5 440.948 581.5 450.895C581.5 460.841 581.326 468.891 581.09 468.891Z" fill="#455A64"/>
<path d="M590.175 468.891C589.954 468.891 589.765 460.825 589.765 450.895C589.765 440.964 589.954 432.883 590.175 432.883C590.396 432.883 590.585 440.948 590.585 450.895C590.585 460.841 590.412 468.891 590.175 468.891Z" fill="#455A64"/>
<path d="M599.26 468.891C599.04 468.891 598.85 460.825 598.85 450.895C598.85 440.964 599.04 432.883 599.26 432.883C599.481 432.883 599.686 440.948 599.686 450.895C599.686 460.841 599.497 468.891 599.26 468.891Z" fill="#455A64"/>
<path d="M608.362 468.891C608.125 468.891 607.952 460.825 607.952 450.895C607.952 440.964 608.125 432.883 608.362 432.883C608.598 432.883 608.772 440.948 608.772 450.895C608.772 460.841 608.582 468.891 608.362 468.891Z" fill="#455A64"/>
<path d="M617.447 468.891C617.211 468.891 617.037 460.825 617.037 450.895C617.037 440.964 617.211 432.883 617.447 432.883C617.684 432.883 617.857 440.948 617.857 450.895C617.857 460.841 617.668 468.891 617.447 468.891Z" fill="#455A64"/>
<path d="M430.849 522.338H392.504V569.409H430.849V522.338Z" fill="#E19508"/>
<path d="M538.092 522.338H430.864V569.409H538.092V522.338Z" fill="#E19508"/>
<path opacity="0.4" d="M538.092 522.338H430.864V569.409H538.092V522.338Z" fill="black"/>
<path d="M412.488 569.409C412.252 569.409 412.078 558.968 412.078 546.072C412.078 533.177 412.252 522.752 412.488 522.752C412.725 522.752 412.899 533.193 412.899 546.072C412.899 558.952 412.709 569.409 412.488 569.409Z" fill="#263238"/>
<path d="M532.066 564.037C532.066 564.037 532.066 563.798 532.066 563.383C532.066 562.969 532.066 562.299 532.066 561.518C532.066 559.924 532.066 557.438 531.987 554.361C531.987 548.145 531.908 539.186 531.845 528.028L532.113 528.299L435.486 528.443L435.896 528.028V532.715C435.896 534.309 435.896 535.823 435.896 537.353V564.037L435.502 563.638L504.636 563.83L524.795 563.941H530.221H531.64C531.803 563.928 531.966 563.928 532.129 563.941H531.561H530.189H524.858L504.778 564.053L435.376 564.244H434.965V537.146C434.965 535.552 434.965 534.054 434.965 532.508V527.821C434.887 527.901 435.754 527.024 435.391 527.407L532.019 527.534H532.303V527.821C532.303 538.979 532.192 548.065 532.145 554.329C532.145 557.374 532.145 559.749 532.145 561.407C532.145 562.188 532.145 562.778 532.145 563.224C532.164 563.498 532.138 563.772 532.066 564.037Z" fill="#263238"/>
<path d="M442.899 564.037C442.663 564.037 442.489 555.971 442.489 546.025C442.489 536.078 442.663 528.028 442.899 528.028C443.136 528.028 443.31 536.078 443.31 546.025C443.31 555.971 443.12 564.037 442.899 564.037Z" fill="#263238"/>
<path d="M451.985 564.037C451.748 564.037 451.575 555.971 451.575 546.025C451.575 536.078 451.748 528.028 451.985 528.028C452.221 528.028 452.395 536.078 452.395 546.025C452.395 555.971 452.206 564.037 451.985 564.037Z" fill="#263238"/>
<path d="M461.07 564.037C460.849 564.037 460.66 555.971 460.66 546.025C460.66 536.078 460.849 528.028 461.07 528.028C461.291 528.028 461.48 536.078 461.48 546.025C461.48 555.971 461.291 564.037 461.07 564.037Z" fill="#263238"/>
<path d="M470.156 564.037C469.935 564.037 469.746 555.971 469.746 546.025C469.746 536.078 469.935 528.028 470.156 528.028C470.377 528.028 470.566 536.078 470.566 546.025C470.566 555.971 470.392 564.037 470.156 564.037Z" fill="#263238"/>
<path d="M479.241 564.037C479.02 564.037 478.831 555.971 478.831 546.025C478.831 536.078 479.02 528.028 479.241 528.028C479.462 528.028 479.651 536.078 479.651 546.025C479.651 555.971 479.509 564.037 479.241 564.037Z" fill="#263238"/>
<path d="M488.327 564.037C488.106 564.037 487.917 555.971 487.917 546.025C487.917 536.078 488.106 528.028 488.327 528.028C488.547 528.028 488.752 536.078 488.752 546.025C488.752 555.971 488.563 564.037 488.327 564.037Z" fill="#263238"/>
<path d="M497.428 564.037C497.191 564.037 497.018 555.971 497.018 546.025C497.018 536.078 497.191 528.028 497.428 528.028C497.664 528.028 497.838 536.078 497.838 546.025C497.838 555.971 497.649 564.037 497.428 564.037Z" fill="#263238"/>
<path d="M506.513 564.037C506.277 564.037 506.103 555.971 506.103 546.025C506.103 536.078 506.277 528.028 506.513 528.028C506.75 528.028 506.923 536.078 506.923 546.025C506.923 555.971 506.734 564.037 506.513 564.037Z" fill="#263238"/>
<path d="M515.599 564.037C515.378 564.037 515.189 555.971 515.189 546.025C515.189 536.078 515.378 528.028 515.599 528.028C515.82 528.028 516.009 536.078 516.009 546.025C516.009 555.971 515.788 564.037 515.599 564.037Z" fill="#263238"/>
<path d="M524.684 564.037C524.463 564.037 524.274 555.971 524.274 546.025C524.274 536.078 524.463 528.028 524.684 528.028C524.905 528.028 525.094 536.078 525.094 546.025C525.094 555.971 524.921 564.037 524.684 564.037Z" fill="#263238"/>
<path d="M553.407 520.808H515.062V567.878H553.407V520.808Z" fill="#263238"/>
<path d="M660.634 520.808H553.407V567.878H660.634V520.808Z" fill="#263238"/>
<path d="M535.031 567.878C534.795 567.878 534.621 557.422 534.621 544.542C534.621 531.663 534.795 521.206 535.031 521.206C535.268 521.206 535.442 531.647 535.442 544.542C535.442 557.438 535.252 567.878 535.031 567.878Z" fill="#455A64"/>
<path d="M553.407 567.878C553.187 567.878 552.997 557.422 552.997 544.542C552.997 531.663 553.187 521.206 553.407 521.206C553.628 521.206 553.817 531.647 553.817 544.542C553.817 557.438 553.644 567.878 553.407 567.878Z" fill="#455A64"/>
<path d="M654.593 562.507C654.593 562.507 654.593 562.268 654.593 561.853C654.593 561.439 654.593 560.769 654.593 559.972C654.593 558.298 654.593 555.907 654.514 552.831C654.514 546.614 654.436 537.656 654.372 526.482L654.641 526.769L558.013 526.913L558.423 526.498V535.807C558.423 538.9 558.423 541.944 558.423 544.957V562.491L558.029 562.092L627.163 562.268L647.322 562.379H652.748H654.167H654.656H654.215H652.843H647.511L627.432 562.491L558.029 562.682H557.635V526.514C557.54 526.594 558.408 525.717 558.045 526.084L654.672 526.227H654.956V526.498C654.956 537.656 654.846 546.758 654.798 553.022C654.798 556.067 654.798 558.442 654.798 560.1C654.798 560.865 654.798 561.471 654.798 561.917C654.754 562.121 654.685 562.319 654.593 562.507Z" fill="#455A64"/>
<path d="M565.442 562.507C565.206 562.507 565.032 554.441 565.032 544.494C565.032 534.548 565.206 526.482 565.442 526.482C565.679 526.482 565.852 534.548 565.852 544.494C565.852 554.441 565.663 562.507 565.442 562.507Z" fill="#455A64"/>
<path d="M574.528 562.507C574.291 562.507 574.118 554.441 574.118 544.494C574.118 534.548 574.291 526.482 574.528 526.482C574.764 526.482 574.938 534.548 574.938 544.494C574.938 554.441 574.749 562.507 574.528 562.507Z" fill="#455A64"/>
<path d="M583.613 562.507C583.392 562.507 583.203 554.441 583.203 544.494C583.203 534.548 583.392 526.482 583.613 526.482C583.834 526.482 584.023 534.548 584.023 544.494C584.023 554.441 583.834 562.507 583.613 562.507Z" fill="#455A64"/>
<path d="M592.699 562.507C592.478 562.507 592.289 554.441 592.289 544.494C592.289 534.548 592.478 526.482 592.699 526.482C592.92 526.482 593.109 534.548 593.109 544.494C593.109 554.441 592.935 562.507 592.699 562.507Z" fill="#455A64"/>
<path d="M601.784 562.507C601.563 562.507 601.374 554.441 601.374 544.494C601.374 534.548 601.563 526.482 601.784 526.482C602.005 526.482 602.194 534.548 602.194 544.494C602.194 554.441 602.021 562.507 601.784 562.507Z" fill="#455A64"/>
<path d="M610.885 562.507C610.649 562.507 610.475 554.441 610.475 544.494C610.475 534.548 610.649 526.482 610.885 526.482C611.122 526.482 611.295 534.548 611.295 544.494C611.295 554.441 611.106 562.507 610.885 562.507Z" fill="#455A64"/>
<path d="M619.971 562.507C619.734 562.507 619.561 554.441 619.561 544.494C619.561 534.548 619.734 526.482 619.971 526.482C620.207 526.482 620.381 534.548 620.381 544.494C620.381 554.441 620.192 562.507 619.971 562.507Z" fill="#455A64"/>
<path d="M629.056 562.507C628.835 562.507 628.646 554.441 628.646 544.494C628.646 534.548 628.835 526.482 629.056 526.482C629.277 526.482 629.466 534.548 629.466 544.494C629.466 554.441 629.356 562.507 629.056 562.507Z" fill="#455A64"/>
<path d="M638.142 562.507C637.921 562.507 637.732 554.441 637.732 544.494C637.732 534.548 637.921 526.482 638.142 526.482C638.363 526.482 638.552 534.548 638.552 544.494C638.552 554.441 638.363 562.507 638.142 562.507Z" fill="#455A64"/>
<path d="M647.227 562.507C647.006 562.507 646.817 554.441 646.817 544.494C646.817 534.548 647.006 526.482 647.227 526.482C647.448 526.482 647.637 534.548 647.637 544.494C647.637 554.441 647.464 562.507 647.227 562.507Z" fill="#455A64"/>
<path d="M583.55 427.399H545.205V474.47H583.55V427.399Z" fill="#455A64"/>
<path d="M690.777 427.399H583.55V474.47H690.777V427.399Z" fill="#455A64"/>
<path d="M565.174 474.47C564.953 474.47 564.764 464.013 564.764 451.134C564.764 438.254 564.953 427.798 565.174 427.798C565.395 427.798 565.584 438.254 565.584 451.134C565.584 464.013 565.411 474.47 565.174 474.47Z" fill="#263238"/>
<path d="M583.613 474.47C583.392 474.47 583.203 464.013 583.203 451.134C583.203 438.254 583.392 427.798 583.613 427.798C583.834 427.798 584.023 438.254 584.023 451.134C584.023 464.013 583.787 474.47 583.613 474.47Z" fill="#263238"/>
<path d="M684.768 469.098C684.756 468.881 684.756 468.662 684.768 468.445C684.768 467.982 684.768 467.361 684.768 466.564C684.768 464.97 684.768 462.499 684.768 459.423C684.768 453.206 684.673 444.248 684.61 433.09L684.894 433.361L588.251 433.504L588.661 433.09V451.564C588.661 457.59 588.661 463.456 588.661 469.098L588.266 468.7L657.401 468.875L677.575 468.987H683.001H684.405H684.91H684.452H683.096H677.749L657.669 469.098L588.266 469.29H587.872V468.891C587.872 463.248 587.872 457.382 587.872 451.357V433.09L588.282 432.675L684.925 432.803H685.209V433.09C685.13 444.248 685.083 453.334 685.052 459.598C685.052 462.643 685.052 465.018 685.052 466.675C685.052 467.456 685.052 468.046 685.052 468.493C685.052 468.939 684.768 469.098 684.768 469.098Z" fill="#263238"/>
<path d="M595.585 469.098C595.364 469.098 595.175 461.033 595.175 451.086C595.175 441.14 595.364 433.09 595.585 433.09C595.806 433.09 595.995 441.14 595.995 451.086C595.995 461.033 595.806 469.098 595.585 469.098Z" fill="#263238"/>
<path d="M604.671 469.098C604.45 469.098 604.261 461.033 604.261 451.086C604.261 441.14 604.45 433.09 604.671 433.09C604.892 433.09 605.081 441.14 605.081 451.086C605.081 461.033 604.907 469.098 604.671 469.098Z" fill="#263238"/>
<path d="M613.756 469.098C613.535 469.098 613.346 461.033 613.346 451.086C613.346 441.14 613.535 433.09 613.756 433.09C613.977 433.09 614.166 441.14 614.166 451.086C614.166 461.033 613.993 469.098 613.756 469.098Z" fill="#263238"/>
<path d="M622.857 469.098C622.621 469.098 622.447 461.033 622.447 451.086C622.447 441.14 622.621 433.09 622.857 433.09C623.094 433.09 623.268 441.14 623.268 451.086C623.268 461.033 623.047 469.098 622.857 469.098Z" fill="#263238"/>
<path d="M631.943 469.098C631.706 469.098 631.533 461.033 631.533 451.086C631.533 441.14 631.706 433.09 631.943 433.09C632.179 433.09 632.353 441.14 632.353 451.086C632.353 461.033 632.164 469.098 631.943 469.098Z" fill="#263238"/>
<path d="M641.028 469.098C640.808 469.098 640.618 461.033 640.618 451.086C640.618 441.14 640.808 433.09 641.028 433.09C641.249 433.09 641.438 441.14 641.438 451.086C641.438 461.033 641.249 469.098 641.028 469.098Z" fill="#263238"/>
<path d="M650.114 469.098C649.893 469.098 649.704 461.033 649.704 451.086C649.704 441.14 649.893 433.09 650.114 433.09C650.335 433.09 650.524 441.14 650.524 451.086C650.524 461.033 650.35 469.098 650.114 469.098Z" fill="#263238"/>
<path d="M659.199 469.098C658.978 469.098 658.789 461.033 658.789 451.086C658.789 441.14 658.978 433.09 659.199 433.09C659.42 433.09 659.609 441.14 659.609 451.086C659.609 461.033 659.436 469.098 659.199 469.098Z" fill="#263238"/>
<path d="M668.3 469.098C668.064 469.098 667.875 461.033 667.875 451.086C667.875 441.14 668.064 433.09 668.3 433.09C668.537 433.09 668.711 441.14 668.711 451.086C668.711 461.033 668.521 469.098 668.3 469.098Z" fill="#263238"/>
<path d="M677.386 469.098C677.149 469.098 676.976 461.033 676.976 451.086C676.976 441.14 677.149 433.09 677.386 433.09C677.622 433.09 677.796 441.14 677.796 451.086C677.796 461.033 677.607 469.098 677.386 469.098Z" fill="#263238"/>
<path d="M526.151 473.753H487.806V520.824H526.151V473.753Z" fill="#E19508"/>
<path d="M633.394 473.753H526.167V520.824H633.394V473.753Z" fill="#E19508"/>
<path opacity="0.4" d="M633.394 473.753H526.167V520.824H633.394V473.753Z" fill="black"/>
<path d="M507.775 520.824C507.554 520.824 507.365 510.367 507.365 497.487C507.365 484.608 507.554 474.167 507.775 474.167C507.996 474.167 508.201 484.608 508.201 497.487C508.201 510.367 508.012 520.824 507.775 520.824Z" fill="#263238"/>
<path d="M627.369 515.452C627.369 515.452 627.369 515.213 627.369 514.798C627.369 514.384 627.369 513.714 627.369 512.933C627.369 511.26 627.369 508.853 627.369 505.776C627.369 499.56 627.274 490.601 627.211 479.443L627.495 479.714L530.867 479.858C530.489 480.224 531.356 479.348 531.262 479.443V497.918C531.262 503.943 531.262 509.809 531.262 515.452L530.867 515.053L600.002 515.229L620.176 515.34H625.602H627.022H627.51H627.069H625.697H620.365L600.27 515.452L530.867 515.643H530.473V497.918C530.473 494.905 530.473 491.861 530.473 488.768V479.443C530.473 479.523 531.262 478.646 530.899 479.029L627.526 479.156H627.81V479.443C627.81 490.601 627.684 499.687 627.652 505.952C627.652 508.996 627.652 511.371 627.652 513.029C627.652 513.81 627.652 514.4 627.652 514.846C627.574 515.055 627.479 515.258 627.369 515.452Z" fill="#263238"/>
<path d="M538.186 515.452C537.965 515.452 537.776 507.386 537.776 497.44C537.776 487.493 537.965 479.443 538.186 479.443C538.407 479.443 538.596 487.493 538.596 497.44C538.596 507.386 538.423 515.452 538.186 515.452Z" fill="#263238"/>
<path d="M547.335 515.452C547.098 515.452 546.925 507.386 546.925 497.44C546.925 487.493 547.098 479.443 547.335 479.443C547.571 479.443 547.745 487.493 547.745 497.44C547.745 507.386 547.508 515.452 547.335 515.452Z" fill="#263238"/>
<path d="M556.373 515.452C556.136 515.452 555.963 507.386 555.963 497.44C555.963 487.493 556.136 479.443 556.373 479.443C556.609 479.443 556.783 487.493 556.783 497.44C556.783 507.386 556.594 515.452 556.373 515.452Z" fill="#263238"/>
<path d="M565.458 515.452C565.237 515.452 565.048 507.386 565.048 497.44C565.048 487.493 565.237 479.443 565.458 479.443C565.679 479.443 565.868 487.493 565.868 497.44C565.868 507.386 565.679 515.452 565.458 515.452Z" fill="#263238"/>
<path d="M574.544 515.452C574.323 515.452 574.134 507.386 574.134 497.44C574.134 487.493 574.323 479.443 574.544 479.443C574.764 479.443 574.954 487.493 574.954 497.44C574.954 507.386 574.764 515.452 574.544 515.452Z" fill="#263238"/>
<path d="M583.613 515.452C583.392 515.452 583.203 507.386 583.203 497.44C583.203 487.493 583.392 479.443 583.613 479.443C583.834 479.443 584.023 487.493 584.023 497.44C584.023 507.386 583.866 515.452 583.613 515.452Z" fill="#263238"/>
<path d="M592.715 515.452C592.494 515.452 592.304 507.386 592.304 497.44C592.304 487.493 592.494 479.443 592.715 479.443C592.935 479.443 593.14 487.493 593.14 497.44C593.14 507.386 592.951 515.452 592.715 515.452Z" fill="#263238"/>
<path d="M601.816 515.452C601.579 515.452 601.406 507.386 601.406 497.44C601.406 487.493 601.579 479.443 601.816 479.443C602.052 479.443 602.226 487.493 602.226 497.44C602.226 507.386 602.037 515.452 601.816 515.452Z" fill="#263238"/>
<path d="M610.901 515.452C610.665 515.452 610.491 507.386 610.491 497.44C610.491 487.493 610.665 479.443 610.901 479.443C611.138 479.443 611.311 487.493 611.311 497.44C611.311 507.386 611.122 515.452 610.901 515.452Z" fill="#263238"/>
<path d="M619.987 515.452C619.766 515.452 619.576 507.386 619.576 497.44C619.576 487.493 619.766 479.443 619.987 479.443C620.207 479.443 620.397 487.493 620.397 497.44C620.397 507.386 620.207 515.452 619.987 515.452Z" fill="#263238"/>
<path d="M633.93 473.561H595.585V520.632H633.93V473.561Z" fill="#455A64"/>
<path d="M741.157 473.561H633.93V520.632H741.157V473.561Z" fill="#455A64"/>
<path d="M615.554 520.616C615.334 520.616 615.144 510.176 615.144 497.296C615.144 484.417 615.334 473.96 615.554 473.96C615.775 473.96 615.964 484.401 615.964 497.296C615.964 510.192 615.775 520.616 615.554 520.616Z" fill="#263238"/>
<path d="M633.93 520.616C633.709 520.616 633.52 510.176 633.52 497.296C633.52 484.417 633.709 473.96 633.93 473.96C634.151 473.96 634.34 484.401 634.34 497.296C634.34 510.192 634.167 520.616 633.93 520.616Z" fill="#263238"/>
<path d="M735.148 515.245C735.124 515.027 735.124 514.808 735.148 514.591C735.148 514.129 735.148 513.523 735.148 512.726C735.148 511.052 735.148 508.661 735.148 505.585C735.148 499.352 735.053 490.394 734.99 479.236L735.274 479.523L638.631 479.651L639.041 479.236V497.695C639.041 503.704 639.041 509.57 639.041 515.229L638.646 514.83L707.781 515.021L727.955 515.133H733.381H734.785H735.29H734.832H733.476H728.129L708.049 515.245L638.646 515.42H638.252V515.021C638.252 509.379 638.252 503.513 638.252 497.487V479.268L638.662 478.854L735.305 478.981H735.574V479.268C735.574 490.506 735.463 499.528 735.432 505.776C735.432 508.837 735.432 511.212 735.432 512.869C735.432 513.635 735.432 514.24 735.432 514.687C735.432 515.133 735.148 515.26 735.148 515.245Z" fill="#263238"/>
<path d="M645.965 515.245C645.744 515.245 645.555 507.179 645.555 497.248C645.555 487.318 645.744 479.236 645.965 479.236C646.186 479.236 646.375 487.302 646.375 497.248C646.375 507.195 646.186 515.245 645.965 515.245Z" fill="#263238"/>
<path d="M655.051 515.245C654.83 515.245 654.641 507.179 654.641 497.248C654.641 487.318 654.83 479.236 655.051 479.236C655.272 479.236 655.461 487.302 655.461 497.248C655.461 507.195 655.272 515.245 655.051 515.245Z" fill="#263238"/>
<path d="M664.136 515.245C663.915 515.245 663.726 507.179 663.726 497.248C663.726 487.318 663.915 479.236 664.136 479.236C664.357 479.236 664.546 487.302 664.546 497.248C664.546 507.195 664.373 515.245 664.136 515.245Z" fill="#263238"/>
<path d="M673.222 515.245C673.001 515.245 672.811 507.179 672.811 497.248C672.811 487.318 673.001 479.236 673.222 479.236C673.442 479.236 673.632 487.302 673.632 497.248C673.632 507.195 673.521 515.245 673.222 515.245Z" fill="#263238"/>
<path d="M682.323 515.245C682.086 515.245 681.913 507.179 681.913 497.248C681.913 487.318 682.086 479.236 682.323 479.236C682.559 479.236 682.733 487.302 682.733 497.248C682.733 507.195 682.544 515.245 682.323 515.245Z" fill="#263238"/>
<path d="M691.408 515.245C691.172 515.245 690.998 507.179 690.998 497.248C690.998 487.318 691.172 479.236 691.408 479.236C691.645 479.236 691.818 487.302 691.818 497.248C691.818 507.195 691.629 515.245 691.408 515.245Z" fill="#263238"/>
<path d="M700.494 515.245C700.273 515.245 700.084 507.179 700.084 497.248C700.084 487.318 700.273 479.236 700.494 479.236C700.715 479.236 700.904 487.302 700.904 497.248C700.904 507.195 700.715 515.245 700.494 515.245Z" fill="#263238"/>
<path d="M709.579 515.245C709.358 515.245 709.169 507.179 709.169 497.248C709.169 487.318 709.358 479.236 709.579 479.236C709.8 479.236 709.989 487.302 709.989 497.248C709.989 507.195 709.8 515.245 709.579 515.245Z" fill="#263238"/>
<path d="M718.665 515.245C718.444 515.245 718.254 507.179 718.254 497.248C718.254 487.318 718.444 479.236 718.665 479.236C718.885 479.236 719.075 487.302 719.075 497.248C719.075 507.195 718.901 515.245 718.665 515.245Z" fill="#263238"/>
<path d="M727.75 515.245C727.529 515.245 727.34 507.179 727.34 497.248C727.34 487.318 727.529 479.236 727.75 479.236C727.971 479.236 728.176 487.302 728.176 497.248C728.176 507.195 727.987 515.245 727.75 515.245Z" fill="#263238"/>
<path d="M295.545 402.342H257.2V449.412H295.545V402.342Z" fill="#455A64"/>
<path d="M402.788 402.342H295.561V449.412H402.788V402.342Z" fill="#455A64"/>
<path d="M277.185 449.396C276.948 449.396 276.775 438.956 276.775 426.076C276.775 413.197 276.948 402.74 277.185 402.74C277.421 402.74 277.595 413.181 277.595 426.076C277.595 438.972 277.406 449.396 277.185 449.396Z" fill="#263238"/>
<path d="M295.561 449.396C295.34 449.396 295.151 438.956 295.151 426.076C295.151 413.197 295.34 402.74 295.561 402.74C295.782 402.74 295.971 413.181 295.971 426.076C295.971 438.972 295.782 449.396 295.561 449.396Z" fill="#263238"/>
<path d="M396.762 444.025C396.762 444.025 396.762 443.801 396.762 443.371C396.762 442.941 396.762 442.303 396.762 441.506C396.762 439.832 396.762 437.441 396.762 434.365C396.762 428.148 396.684 419.174 396.62 408.016L396.889 408.303L300.261 408.431L300.671 408.016V412.671C300.671 414.265 300.671 415.779 300.671 417.325V443.993L300.277 443.594L369.411 443.786L389.57 443.897H394.996H396.415H396.904C396.758 443.913 396.61 443.913 396.463 443.897H395.09H389.759L369.68 444.009L300.277 444.184H299.693V417.086C299.693 415.492 299.693 413.994 299.693 412.432V408.064C299.693 408.16 300.482 407.283 300.119 407.65L396.747 407.793H397.031V408.064C397.031 419.222 396.92 428.324 396.873 434.572C396.873 437.633 396.873 440.008 396.873 441.666C396.873 442.431 396.873 443.036 396.873 443.483C396.859 443.667 396.821 443.849 396.762 444.025Z" fill="#263238"/>
<path d="M307.58 444.025C307.343 444.025 307.17 435.975 307.17 426.028C307.17 416.082 307.343 408.016 307.58 408.016C307.817 408.016 307.99 416.082 307.99 426.028C307.99 435.975 307.817 444.025 307.58 444.025Z" fill="#263238"/>
<path d="M316.681 444.025C316.445 444.025 316.271 435.975 316.271 426.028C316.271 416.082 316.445 408.016 316.681 408.016C316.918 408.016 317.091 416.082 317.091 426.028C317.091 435.975 316.902 444.025 316.681 444.025Z" fill="#263238"/>
<path d="M325.767 444.025C325.546 444.025 325.357 435.975 325.357 426.028C325.357 416.082 325.546 408.016 325.767 408.016C325.987 408.016 326.177 416.082 326.177 426.028C326.177 435.975 325.987 444.025 325.767 444.025Z" fill="#263238"/>
<path d="M334.852 444.025C334.631 444.025 334.442 435.975 334.442 426.028C334.442 416.082 334.631 408.016 334.852 408.016C335.073 408.016 335.262 416.082 335.262 426.028C335.262 435.975 335.089 444.025 334.852 444.025Z" fill="#263238"/>
<path d="M343.938 444.025C343.717 444.025 343.527 435.975 343.527 426.028C343.527 416.082 343.717 408.016 343.938 408.016C344.158 408.016 344.348 416.082 344.348 426.028C344.348 435.975 344.174 444.025 343.938 444.025Z" fill="#263238"/>
<path d="M353.039 444.025C352.802 444.025 352.613 435.975 352.613 426.028C352.613 416.082 352.802 408.016 353.039 408.016C353.275 408.016 353.449 416.082 353.449 426.028C353.449 435.975 353.323 444.025 353.039 444.025Z" fill="#263238"/>
<path d="M362.124 444.025C361.888 444.025 361.714 435.975 361.714 426.028C361.714 416.082 361.888 408.016 362.124 408.016C362.361 408.016 362.534 416.082 362.534 426.028C362.534 435.975 362.345 444.025 362.124 444.025Z" fill="#263238"/>
<path d="M371.21 444.025C370.973 444.025 370.799 435.975 370.799 426.028C370.799 416.082 370.973 408.016 371.21 408.016C371.446 408.016 371.62 416.082 371.62 426.028C371.62 435.975 371.43 444.025 371.21 444.025Z" fill="#263238"/>
<path d="M380.295 444.025C380.074 444.025 379.885 435.975 379.885 426.028C379.885 416.082 380.074 408.016 380.295 408.016C380.516 408.016 380.705 416.082 380.705 426.028C380.705 435.975 380.516 444.025 380.295 444.025Z" fill="#263238"/>
<path d="M389.381 444.025C389.16 444.025 388.97 435.975 388.97 426.028C388.97 416.082 389.16 408.016 389.381 408.016C389.601 408.016 389.791 416.082 389.791 426.028C389.791 435.975 389.601 444.025 389.381 444.025Z" fill="#263238"/>
<path d="M636.375 425.885H598.03V472.956H636.375V425.885Z" fill="#263238"/>
<path d="M743.602 425.885H636.375V472.956H743.602V425.885Z" fill="#263238"/>
<path d="M617.999 472.94C617.763 472.94 617.589 462.499 617.589 449.62C617.589 436.74 617.763 426.283 617.999 426.283C618.236 426.283 618.409 436.724 618.409 449.62C618.409 462.515 618.22 472.94 617.999 472.94Z" fill="#455A64"/>
<path d="M636.375 472.94C636.154 472.94 635.965 462.499 635.965 449.62C635.965 436.74 636.154 426.283 636.375 426.283C636.596 426.283 636.785 436.724 636.785 449.62C636.785 462.515 636.596 472.94 636.375 472.94Z" fill="#455A64"/>
<path d="M737.577 467.568C737.577 467.568 737.577 467.345 737.577 466.914C737.577 466.484 737.577 465.846 737.577 465.049C737.577 463.376 737.577 460.985 737.498 457.908C737.498 451.692 737.498 442.718 737.356 431.56L737.624 431.846L640.997 431.974C640.634 432.357 641.486 431.48 641.407 431.575V440.884C641.407 443.961 641.407 447.021 641.407 450.034V467.568L641.013 467.169L710.147 467.361L730.321 467.472H735.731H737.151H737.64C737.494 467.499 737.344 467.499 737.198 467.472H735.842H730.495L710.415 467.584L641.013 467.775H640.618V467.361C640.618 461.718 640.618 455.868 640.618 449.827V431.591C640.524 431.671 641.391 430.794 641.028 431.161L737.656 431.304H737.94V431.575C737.94 442.813 737.829 451.835 737.798 458.084C737.798 461.144 737.798 463.519 737.719 465.177C737.719 465.942 737.719 466.548 737.719 466.994C737.697 467.191 737.649 467.384 737.577 467.568Z" fill="#455A64"/>
<path d="M648.41 467.568C648.174 467.568 648 459.518 648 449.572C648 439.625 648.174 431.56 648.41 431.56C648.647 431.56 648.82 439.625 648.82 449.572C648.82 459.518 648.631 467.568 648.41 467.568Z" fill="#455A64"/>
<path d="M657.496 467.568C657.275 467.568 657.085 459.518 657.085 449.572C657.085 439.625 657.275 431.56 657.496 431.56C657.716 431.56 657.906 439.625 657.906 449.572C657.906 459.518 657.748 467.568 657.496 467.568Z" fill="#455A64"/>
<path d="M666.581 467.568C666.36 467.568 666.171 459.518 666.171 449.572C666.171 439.625 666.36 431.56 666.581 431.56C666.802 431.56 666.991 439.625 666.991 449.572C666.991 459.518 666.802 467.568 666.581 467.568Z" fill="#455A64"/>
<path d="M675.666 467.568C675.446 467.568 675.256 459.518 675.256 449.572C675.256 439.625 675.446 431.56 675.666 431.56C675.887 431.56 676.077 439.625 676.077 449.572C676.077 459.518 675.903 467.568 675.666 467.568Z" fill="#455A64"/>
<path d="M684.752 467.568C684.531 467.568 684.342 459.518 684.342 449.572C684.342 439.625 684.531 431.56 684.752 431.56C684.973 431.56 685.162 439.625 685.162 449.572C685.162 459.518 684.989 467.568 684.752 467.568Z" fill="#455A64"/>
<path d="M693.853 467.568C693.617 467.568 693.443 459.518 693.443 449.572C693.443 439.625 693.617 431.56 693.853 431.56C694.09 431.56 694.263 439.625 694.263 449.572C694.263 459.518 694.027 467.568 693.853 467.568Z" fill="#455A64"/>
<path d="M702.939 467.568C702.702 467.568 702.529 459.518 702.529 449.572C702.529 439.625 702.702 431.56 702.939 431.56C703.175 431.56 703.349 439.625 703.349 449.572C703.349 459.518 703.159 467.568 702.939 467.568Z" fill="#455A64"/>
<path d="M712.024 467.568C711.803 467.568 711.614 459.518 711.614 449.572C711.614 439.625 711.803 431.56 712.024 431.56C712.245 431.56 712.434 439.625 712.434 449.572C712.434 459.518 712.245 467.568 712.024 467.568Z" fill="#455A64"/>
<path d="M721.109 467.568C720.889 467.568 720.699 459.518 720.699 449.572C720.699 439.625 720.889 431.56 721.109 431.56C721.33 431.56 721.52 439.625 721.52 449.572C721.52 459.518 721.346 467.568 721.109 467.568Z" fill="#455A64"/>
<path d="M730.195 467.568C729.974 467.568 729.785 459.518 729.785 449.572C729.785 439.625 729.974 431.56 730.195 431.56C730.416 431.56 730.605 439.625 730.605 449.572C730.605 459.518 730.431 467.568 730.195 467.568Z" fill="#455A64"/>
<path d="M642.385 520.616H604.04V567.687H642.385V520.616Z" fill="#E19508"/>
<path d="M749.628 520.616H642.401V567.687H749.628V520.616Z" fill="#E19508"/>
<path opacity="0.4" d="M749.628 520.616H642.401V567.687H749.628V520.616Z" fill="black"/>
<path d="M624.025 567.687C623.788 567.687 623.614 557.231 623.614 544.351C623.614 531.471 623.788 521.015 624.025 521.015C624.261 521.015 624.435 531.471 624.435 544.351C624.435 557.231 624.245 567.687 624.025 567.687Z" fill="#263238"/>
<path d="M743.602 562.315C743.602 562.315 743.602 562.076 743.602 561.662C743.602 561.247 743.602 560.578 743.602 559.781C743.602 558.187 743.602 555.716 743.602 552.64C743.602 546.423 743.523 537.465 743.46 526.307L743.729 526.578L647.101 526.721L647.511 526.307V530.993C647.511 532.587 647.511 534.102 647.511 535.632V562.315L647.101 561.917L716.251 562.092L736.41 562.204H741.836H743.255H743.744H743.303H741.93H736.599L716.52 562.315L647.117 562.507H646.723V544.781C646.723 541.769 646.723 538.724 646.723 535.632V526.307C646.723 526.387 647.511 525.51 647.148 525.893L743.776 526.02H744.06V526.307C744.06 537.465 743.949 546.551 743.902 552.815C743.902 555.86 743.902 558.235 743.902 559.893C743.902 560.658 743.902 561.263 743.902 561.71C743.831 561.925 743.73 562.129 743.602 562.315Z" fill="#263238"/>
<path d="M654.436 562.315C654.199 562.315 654.026 554.25 654.026 544.303C654.026 534.357 654.199 526.307 654.436 526.307C654.672 526.307 654.846 534.357 654.846 544.303C654.846 554.25 654.593 562.315 654.436 562.315Z" fill="#263238"/>
<path d="M663.521 562.315C663.284 562.315 663.111 554.25 663.111 544.303C663.111 534.357 663.284 526.307 663.521 526.307C663.758 526.307 663.931 534.357 663.931 544.303C663.931 554.25 663.742 562.315 663.521 562.315Z" fill="#263238"/>
<path d="M672.606 562.315C672.386 562.315 672.196 554.25 672.196 544.303C672.196 534.357 672.386 526.307 672.606 526.307C672.827 526.307 673.017 534.357 673.017 544.303C673.017 554.25 672.827 562.315 672.606 562.315Z" fill="#263238"/>
<path d="M681.692 562.315C681.471 562.315 681.282 554.25 681.282 544.303C681.282 534.357 681.471 526.307 681.692 526.307C681.913 526.307 682.102 534.357 682.102 544.303C682.102 554.25 681.913 562.315 681.692 562.315Z" fill="#263238"/>
<path d="M690.777 562.315C690.557 562.315 690.367 554.25 690.367 544.303C690.367 534.357 690.557 526.307 690.777 526.307C690.998 526.307 691.187 534.357 691.187 544.303C691.187 554.25 691.014 562.315 690.777 562.315Z" fill="#263238"/>
<path d="M699.863 562.315C699.642 562.315 699.453 554.25 699.453 544.303C699.453 534.357 699.642 526.307 699.863 526.307C700.084 526.307 700.289 534.357 700.289 544.303C700.289 554.25 700.099 562.315 699.863 562.315Z" fill="#263238"/>
<path d="M708.964 562.315C708.727 562.315 708.554 554.25 708.554 544.303C708.554 534.357 708.727 526.307 708.964 526.307C709.201 526.307 709.374 534.357 709.374 544.303C709.374 554.25 709.185 562.315 708.964 562.315Z" fill="#263238"/>
<path d="M718.049 562.315C717.813 562.315 717.639 554.25 717.639 544.303C717.639 534.357 717.813 526.307 718.049 526.307C718.286 526.307 718.46 534.357 718.46 544.303C718.46 554.25 718.27 562.315 718.049 562.315Z" fill="#263238"/>
<path d="M727.151 562.315C726.93 562.315 726.741 554.25 726.741 544.303C726.741 534.357 726.93 526.307 727.151 526.307C727.371 526.307 727.561 534.357 727.561 544.303C727.561 554.25 727.356 562.315 727.151 562.315Z" fill="#263238"/>
<path d="M736.22 562.315C735.999 562.315 735.81 554.25 735.81 544.303C735.81 534.357 735.999 526.307 736.22 526.307C736.441 526.307 736.63 534.357 736.63 544.303C736.63 554.25 736.457 562.315 736.22 562.315Z" fill="#263238"/>
<path d="M585.617 553.118H585.08H583.503L577.477 553.198L555.284 553.325L482.096 553.453C444.24 553.453 411.116 553.373 393.45 553.245L393.655 553.038C393.655 557.82 393.655 561.582 393.56 564.196C393.56 565.424 393.56 566.396 393.56 567.097C393.56 567.384 393.56 567.639 393.56 567.831C393.56 568.022 393.56 568.086 393.56 568.086C393.56 568.086 393.56 568.006 393.56 567.831V567.097C393.56 566.396 393.56 565.424 393.56 564.196C393.56 561.582 393.56 557.82 393.466 553.038V552.831H393.687C411.4 552.704 444.493 552.624 482.333 552.624L555.521 552.751L577.714 552.879L583.739 552.959H585.317L585.617 553.118Z" fill="#263238"/>
<path d="M569.685 566.444C569.139 562.056 569.139 557.617 569.685 553.23C570.232 557.617 570.232 562.056 569.685 566.444Z" fill="#263238"/>
<path d="M542.839 566.444C542.292 562.056 542.292 557.617 542.839 553.23C543.386 557.617 543.386 562.056 542.839 566.444Z" fill="#263238"/>
<path d="M515.993 566.444C515.446 562.056 515.446 557.617 515.993 553.23C516.54 557.617 516.54 562.056 515.993 566.444Z" fill="#263238"/>
<path d="M489.131 566.444C488.584 562.056 488.584 557.617 489.131 553.23C489.678 557.617 489.678 562.056 489.131 566.444Z" fill="#263238"/>
<path d="M462.285 566.444C461.738 562.056 461.738 557.617 462.285 553.23C462.832 557.617 462.832 562.056 462.285 566.444Z" fill="#263238"/>
<path d="M435.439 566.444C434.872 562.058 434.872 557.616 435.439 553.23C435.985 557.617 435.985 562.056 435.439 566.444Z" fill="#263238"/>
<path d="M408.529 566.444C407.982 562.056 407.982 557.617 408.529 553.23C409.076 557.617 409.076 562.056 408.529 566.444Z" fill="#263238"/>
<path d="M777.767 565.95C777.746 565.674 777.746 565.397 777.767 565.121C777.767 564.536 777.767 563.723 777.767 562.682C777.767 560.466 777.767 557.278 777.673 553.118L777.862 553.325C760.969 553.453 727.072 553.532 688.112 553.532L615.696 553.421L593.756 553.277H587.778H586.2C586.027 553.298 585.853 553.298 585.68 553.277H586.2H587.778L593.756 553.198L615.696 553.07L688.112 552.943C727.072 552.943 760.969 553.038 777.862 553.166H778.067V553.118C778.067 557.231 778.067 560.419 778.067 562.682C778.067 563.718 778.067 564.531 778.067 565.121C777.99 565.405 777.89 565.682 777.767 565.95Z" fill="#263238"/>
<path d="M708.223 566.492C707.676 562.104 707.676 557.665 708.223 553.277C708.769 557.665 708.769 562.104 708.223 566.492Z" fill="#263238"/>
<path d="M681.298 566.492C680.751 562.104 680.751 557.665 681.298 553.277C681.844 557.665 681.844 562.104 681.298 566.492Z" fill="#263238"/>
<path d="M654.436 566.492C653.889 562.104 653.889 557.665 654.436 553.277C655.003 557.664 655.003 562.106 654.436 566.492Z" fill="#263238"/>
<path d="M627.589 566.492C627.043 562.104 627.043 557.665 627.589 553.277C628.136 557.665 628.136 562.104 627.589 566.492Z" fill="#263238"/>
<path d="M600.743 566.492C600.196 562.104 600.196 557.665 600.743 553.277C601.29 557.665 601.29 562.104 600.743 566.492Z" fill="#263238"/>
<path d="M390.027 545.977C390.007 545.701 390.007 545.424 390.027 545.148C390.027 544.553 390.027 543.74 390.027 542.709C390.027 540.494 390.027 537.306 389.933 533.145L390.122 533.336C372.282 533.464 335.42 533.56 292.942 533.56C252.105 533.56 216.489 533.48 197.971 533.352L198.176 533.145C198.176 537.927 198.176 541.721 198.082 544.303C198.082 545.546 198.082 546.503 198.082 547.204C198.082 547.906 198.082 548.193 198.082 548.193C198.064 547.863 198.064 547.533 198.082 547.204C198.082 546.503 198.082 545.61 198.082 544.303C198.082 541.721 198.082 537.927 197.987 533.145V532.938H198.192C216.71 532.81 252.326 532.731 293.163 532.731C335.641 532.731 372.503 532.826 390.343 532.954H390.532V533.145C390.532 537.258 390.532 540.446 390.532 542.709C390.532 543.772 390.532 544.585 390.532 545.148C390.396 545.443 390.226 545.721 390.027 545.977Z" fill="#263238"/>
<path d="M374.112 546.503C373.565 542.115 373.565 537.676 374.112 533.289C374.659 537.676 374.659 542.115 374.112 546.503Z" fill="#263238"/>
<path d="M347.266 546.503C346.719 542.115 346.719 537.676 347.266 533.289C347.813 537.676 347.813 542.115 347.266 546.503Z" fill="#263238"/>
<path d="M320.404 546.503C319.857 542.115 319.857 537.676 320.404 533.289C320.951 537.676 320.951 542.115 320.404 546.503Z" fill="#263238"/>
<path d="M293.558 546.503C293.011 542.115 293.011 537.676 293.558 533.289C294.104 537.676 294.104 542.115 293.558 546.503Z" fill="#263238"/>
<path d="M266.711 546.503C266.164 542.115 266.164 537.676 266.711 533.289C267.258 537.676 267.258 542.115 266.711 546.503Z" fill="#263238"/>
<path d="M239.849 546.503C239.302 542.115 239.302 537.676 239.849 533.289C240.396 537.676 240.396 542.115 239.849 546.503Z" fill="#263238"/>
<path d="M212.94 546.503C212.393 542.115 212.393 537.676 212.94 533.289C213.487 537.676 213.487 542.115 212.94 546.503Z" fill="#263238"/>
<path d="M295.545 449.412H257.2V496.483H295.545V449.412Z" fill="#E19508"/>
<path d="M402.788 449.412H295.561V496.483H402.788V449.412Z" fill="#E19508"/>
<path opacity="0.4" d="M402.788 449.412H295.561V496.483H402.788V449.412Z" fill="black"/>
<path d="M277.185 496.483C276.948 496.483 276.775 486.027 276.775 473.147C276.775 460.267 276.948 449.811 277.185 449.811C277.421 449.811 277.595 460.267 277.595 473.147C277.595 486.027 277.406 496.483 277.185 496.483Z" fill="#263238"/>
<path d="M396.762 491.111C396.762 491.111 396.762 490.872 396.762 490.458C396.762 490.043 396.762 489.374 396.762 488.577C396.762 486.983 396.762 484.512 396.762 481.436C396.762 475.219 396.684 466.261 396.62 455.103L396.889 455.374L300.261 455.517L300.671 455.103V459.789C300.671 461.383 300.671 462.898 300.671 464.428V491.111L300.277 490.713L369.411 490.888L389.57 491H394.996H396.415C396.578 490.987 396.742 490.987 396.904 491H396.463H395.09H389.759L369.68 491.111L300.277 491.303H299.693V464.205C299.693 462.611 299.693 461.112 299.693 459.566V454.88C299.693 454.959 300.482 454.083 300.119 454.465L396.747 454.593H397.031V454.88C397.031 466.038 396.92 475.124 396.873 481.388C396.873 484.433 396.873 486.808 396.873 488.465C396.873 489.23 396.873 489.836 396.873 490.283C396.884 490.563 396.846 490.844 396.762 491.111Z" fill="#263238"/>
<path d="M307.58 491.111C307.343 491.111 307.17 483.046 307.17 473.099C307.17 463.153 307.343 455.103 307.58 455.103C307.817 455.103 307.99 463.153 307.99 473.099C307.99 483.046 307.817 491.111 307.58 491.111Z" fill="#263238"/>
<path d="M316.681 491.111C316.445 491.111 316.271 483.046 316.271 473.099C316.271 463.153 316.445 455.103 316.681 455.103C316.918 455.103 317.091 463.153 317.091 473.099C317.091 483.046 316.902 491.111 316.681 491.111Z" fill="#263238"/>
<path d="M325.767 491.111C325.546 491.111 325.357 483.046 325.357 473.099C325.357 463.153 325.546 455.103 325.767 455.103C325.987 455.103 326.177 463.153 326.177 473.099C326.177 483.046 325.987 491.111 325.767 491.111Z" fill="#263238"/>
<path d="M334.852 491.111C334.631 491.111 334.442 483.046 334.442 473.099C334.442 463.153 334.631 455.103 334.852 455.103C335.073 455.103 335.262 463.153 335.262 473.099C335.262 483.046 335.089 491.111 334.852 491.111Z" fill="#263238"/>
<path d="M343.938 491.111C343.717 491.111 343.527 483.046 343.527 473.099C343.527 463.153 343.717 455.103 343.938 455.103C344.158 455.103 344.348 463.153 344.348 473.099C344.348 483.046 344.174 491.111 343.938 491.111Z" fill="#263238"/>
<path d="M353.039 491.111C352.802 491.111 352.613 483.046 352.613 473.099C352.613 463.153 352.802 455.103 353.039 455.103C353.275 455.103 353.449 463.153 353.449 473.099C353.449 483.046 353.323 491.111 353.039 491.111Z" fill="#263238"/>
<path d="M362.124 491.111C361.888 491.111 361.714 483.046 361.714 473.099C361.714 463.153 361.888 455.103 362.124 455.103C362.361 455.103 362.534 463.153 362.534 473.099C362.534 483.046 362.345 491.111 362.124 491.111Z" fill="#263238"/>
<path d="M371.21 491.111C370.973 491.111 370.799 483.046 370.799 473.099C370.799 463.153 370.973 455.103 371.21 455.103C371.446 455.103 371.62 463.153 371.62 473.099C371.62 483.046 371.43 491.111 371.21 491.111Z" fill="#263238"/>
<path d="M380.295 491.111C380.074 491.111 379.885 483.046 379.885 473.099C379.885 463.153 380.074 455.103 380.295 455.103C380.516 455.103 380.705 463.153 380.705 473.099C380.705 483.046 380.516 491.111 380.295 491.111Z" fill="#263238"/>
<path d="M389.381 491.111C389.16 491.111 388.97 483.046 388.97 473.099C388.97 463.153 389.16 455.103 389.381 455.103C389.601 455.103 389.791 463.153 389.791 473.099C389.791 483.046 389.601 491.111 389.381 491.111Z" fill="#263238"/>
<path d="M779.124 567.177V459.263H885.01V568.165" fill="#455A64"/>
<path d="M856.76 554.202H850.861V567.177H856.76V554.202Z" fill="#263238"/>
<path d="M791.395 536.716H787.689V545.977H791.395V536.716Z" fill="#263238"/>
<path d="M791.395 553.118H787.689V562.379H791.395V553.118Z" fill="#263238"/>
<path d="M812.674 536.716H808.967V545.977H812.674V536.716Z" fill="#263238"/>
<path d="M812.674 552.975H808.967V562.236H812.674V552.975Z" fill="#263238"/>
<path d="M833.952 536.716H830.245V545.977H833.952V536.716Z" fill="#263238"/>
<path d="M833.952 552.847H830.245V562.108H833.952V552.847Z" fill="#263238"/>
<path d="M855.23 536.716H851.523V545.977H855.23V536.716Z" fill="#263238"/>
<path d="M876.493 536.716H872.786V545.977H876.493V536.716Z" fill="#263238"/>
<path d="M876.493 552.305H872.786V561.566H876.493V552.305Z" fill="#263238"/>
<path d="M856.318 495.415H850.419V508.39H856.318V495.415Z" fill="#263238"/>
<path d="M791.395 470.565H787.689V479.826H791.395V470.565Z" fill="#263238"/>
<path d="M791.395 486.967H787.689V496.228H791.395V486.967Z" fill="#263238"/>
<path d="M812.674 470.565H808.967V479.826H812.674V470.565Z" fill="#263238"/>
<path d="M812.674 486.824H808.967V496.085H812.674V486.824Z" fill="#263238"/>
<path d="M833.952 470.565H830.245V479.826H833.952V470.565Z" fill="#263238"/>
<path d="M833.952 486.696H830.245V495.957H833.952V486.696Z" fill="#263238"/>
<path d="M855.23 470.565H851.523V479.826H855.23V470.565Z" fill="#263238"/>
<path d="M876.493 470.565H872.786V479.826H876.493V470.565Z" fill="#263238"/>
<path d="M876.493 486.154H872.786V495.415H876.493V486.154Z" fill="#263238"/>
<path d="M291.207 669.273C291.207 669.273 307.769 607.936 247.894 593.972C191.898 580.917 193.271 545.977 193.271 545.977H393.876V567.177H921.857C921.857 567.177 918.986 635.894 869.442 669.273" fill="#455A64"/>
<path d="M292.611 640.485H897.676C897.676 640.485 880.957 663.343 869.442 669.273H291.207C292.543 659.74 293.012 650.104 292.611 640.485Z" fill="#263238"/>
<path d="M882.045 508.39C881.975 507.996 881.948 507.595 881.966 507.195C881.966 506.35 881.966 505.202 881.966 503.768L882.124 503.927C873.117 504.087 851.413 504.182 826.081 504.182C800.749 504.182 779.029 504.087 770.023 503.927L770.18 503.768C770.18 505.202 770.18 506.35 770.101 507.195C770.119 507.595 770.093 507.996 770.023 508.39C769.973 507.994 769.947 507.595 769.944 507.195C769.944 506.35 769.944 505.202 769.865 503.768V503.704H770.023C779.029 503.561 800.733 503.449 826.081 503.449C851.429 503.449 873.117 503.561 882.124 503.704H882.281C882.281 505.139 882.281 506.286 882.281 507.131C882.241 507.557 882.161 507.979 882.045 508.39Z" fill="#263238"/>
<path d="M783.935 509.634C783.714 509.634 783.525 508.279 783.525 506.589C783.525 504.899 783.714 503.545 783.935 503.545C784.155 503.545 784.345 504.915 784.345 506.589C784.345 508.263 784.108 509.634 783.935 509.634Z" fill="#263238"/>
<path d="M798.698 509.634C798.478 509.634 798.288 508.279 798.288 506.589C798.288 504.899 798.478 503.545 798.698 503.545C798.919 503.545 799.109 504.915 799.109 506.589C799.109 508.263 798.935 509.634 798.698 509.634Z" fill="#263238"/>
<path d="M813.541 509.634C813.305 509.634 813.131 508.279 813.131 506.589C813.131 504.899 813.305 503.545 813.541 503.545C813.778 503.545 813.951 504.915 813.951 506.589C813.951 508.263 813.762 509.634 813.541 509.634Z" fill="#263238"/>
<path d="M828.368 509.634C828.132 509.634 827.958 508.279 827.958 506.589C827.958 504.899 828.132 503.545 828.368 503.545C828.605 503.545 828.778 504.915 828.778 506.589C828.778 508.263 828.589 509.634 828.368 509.634Z" fill="#263238"/>
<path d="M843.195 509.634C842.974 509.634 842.785 508.279 842.785 506.589C842.785 504.899 842.974 503.545 843.195 503.545C843.416 503.545 843.605 504.915 843.605 506.589C843.605 508.263 843.416 509.634 843.195 509.634Z" fill="#263238"/>
<path d="M858.069 509.634C857.848 509.634 857.659 508.279 857.659 506.589C857.659 504.899 857.848 503.545 858.069 503.545C858.29 503.545 858.479 504.915 858.479 506.589C858.479 508.263 858.259 509.634 858.069 509.634Z" fill="#263238"/>
<path d="M872.849 509.634C872.628 509.634 872.439 508.279 872.439 506.589C872.439 504.899 872.628 503.545 872.849 503.545C873.07 503.545 873.259 504.915 873.259 506.589C873.259 508.263 873.085 509.634 872.849 509.634Z" fill="#263238"/>
<path d="M884.994 508.39H767.736V520.218H884.994V508.39Z" fill="#263238"/>
<path opacity="0.4" d="M796.932 442.734H809.692L811.096 450.927H796.932V442.734Z" fill="white"/>
<path d="M921.352 565.95C921.335 565.668 921.335 565.386 921.352 565.105C921.352 564.483 921.352 563.67 921.352 562.618C921.352 560.387 921.352 557.199 921.241 553.166L921.462 553.389C907.266 553.516 881.745 553.58 852.706 553.58L795.134 553.469L777.625 553.325H772.893H771.663C771.522 553.346 771.378 553.346 771.237 553.325H771.663H772.893L777.625 553.245L795.071 553.118L852.643 552.99C881.682 552.99 907.172 553.07 921.399 553.182H921.62V553.118C921.62 557.151 921.62 560.339 921.51 562.57C921.51 563.622 921.51 564.435 921.51 565.057C921.488 565.359 921.435 565.658 921.352 565.95Z" fill="#263238"/>
<path d="M905.389 566.492C904.842 562.104 904.842 557.665 905.389 553.277C905.936 557.665 905.936 562.104 905.389 566.492Z" fill="#263238"/>
<path d="M878.575 566.492C878.008 562.106 878.008 557.664 878.575 553.277C879.122 557.665 879.122 562.104 878.575 566.492Z" fill="#263238"/>
<path d="M851.76 566.492C851.213 562.104 851.213 557.665 851.76 553.277C852.307 557.665 852.307 562.104 851.76 566.492Z" fill="#263238"/>
<path d="M824.945 566.492C824.398 562.104 824.398 557.665 824.945 553.277C825.492 557.665 825.492 562.104 824.945 566.492Z" fill="#263238"/>
<path d="M798.02 566.492C797.473 562.104 797.473 557.665 798.02 553.277C798.587 557.664 798.587 562.106 798.02 566.492Z" fill="#263238"/>
<path d="M771.174 566.492C770.627 562.104 770.627 557.665 771.174 553.277C771.721 557.665 771.721 562.104 771.174 566.492Z" fill="#263238"/>
<path d="M744.328 566.492C743.781 562.104 743.781 557.665 744.328 553.277C744.875 557.665 744.875 562.104 744.328 566.492Z" fill="#263238"/>
</svg>
