 <svg
      xmlns="http://www.w3.org/2000/svg"
      width="30"
      height="30"
      viewBox="0 0 30 30"
      fill="none"
    >
      <g clip-path="url(#clip0_1_396)">
        <path
          d="M29.6005 14.9001C29.6005 6.89748 23.1131 0.410095 15.1105 0.410095C7.10787 0.410095 0.620483 6.89748 0.620483 14.9001C0.620483 22.1324 5.91924 28.127 12.8464 29.2141V19.0886H9.16732V14.9001H12.8464V11.7078C12.8464 8.07621 15.0097 6.07025 18.3195 6.07025C19.9044 6.07025 21.5631 6.35326 21.5631 6.35326V9.91916H19.736C17.936 9.91916 17.3745 11.0362 17.3745 12.1832V14.9001H21.3933L20.7508 19.0886H17.3745V29.2141C24.3017 28.127 29.6005 22.1324 29.6005 14.9001Z"
          fill="#1877F2"
        />
        <path
          d="M20.7508 19.0886L21.3932 14.9001H17.3745V12.1832C17.3745 11.0373 17.936 9.91916 19.7359 9.91916H21.563V6.35326C21.563 6.35326 19.9049 6.07025 18.3195 6.07025C15.0097 6.07025 12.8464 8.07621 12.8464 11.7078V14.9001H9.1673V19.0886H12.8464V29.2141C14.3466 29.4488 15.8743 29.4488 17.3745 29.2141V19.0886H20.7508Z"
          fill="white"
        />
      </g>
      <defs>
        <clipPath id="clip0_1_396">
          <rect
            width="28.98"
            height="28.98"
            fill="white"
            transform="translate(0.623291 0.409912)"
          />
        </clipPath>
      </defs>
    </svg>